<svg width="629" height="578" viewBox="0 0 629 578" fill="none" xmlns="http://www.w3.org/2000/svg">
<path d="M447.287 514.523C505.161 514.523 552.078 500.605 552.078 483.435C552.078 466.265 505.161 452.346 447.287 452.346C389.413 452.346 342.497 466.265 342.497 483.435C342.497 500.605 389.413 514.523 447.287 514.523Z" fill="#263238" stroke="#263238" stroke-width="1.193" stroke-linecap="round" stroke-linejoin="round"/>
<path d="M447.287 466.642C496.852 466.642 538.362 476.801 549.262 490.575C550.983 488.583 551.976 486.065 552.077 483.434C552.077 466.25 505.154 452.331 447.287 452.331C389.42 452.331 342.482 466.25 342.482 483.434C342.584 486.065 343.577 488.583 345.298 490.575C356.198 476.86 397.708 466.642 447.287 466.642Z" fill="white" stroke="#263238" stroke-width="1.193" stroke-linecap="round" stroke-linejoin="round"/>
<path d="M432.976 510.619C397.968 509.037 371.553 501.91 371.553 493.202C371.571 492.252 371.869 491.328 372.409 490.546" stroke="white" stroke-width="1.193" stroke-linecap="round" stroke-linejoin="round"/>
<path d="M514.21 484.726C520.205 487.266 523.63 490.169 523.63 493.26C523.63 503.028 489.58 510.938 447.592 510.938H445.777" stroke="white" stroke-width="1.193" stroke-linecap="round" stroke-linejoin="round"/>
<path d="M381.785 484.393C394.949 479.124 419.521 475.568 447.591 475.568C463.564 475.445 479.515 476.752 495.255 479.473" stroke="white" stroke-width="1.193" stroke-linecap="round" stroke-linejoin="round"/>
<path d="M431.974 499.327C423.106 498.094 417.17 495.844 417.17 493.261C417.17 489.356 430.798 486.192 447.649 486.192C464.5 486.192 478.056 489.356 478.056 493.261C478.056 496.613 468.041 499.415 454.601 500.14" stroke="white" stroke-width="1.193" stroke-linecap="round" stroke-linejoin="round"/>
<path d="M26.4287 358.454C72.1329 345.464 168.302 319.833 221.379 317.902C292.729 315.377 413.195 367.162 488.406 376.234C563.617 385.305 614.154 382.721 614.154 382.721" stroke="#263238" stroke-width="1.193" stroke-linecap="round" stroke-linejoin="round"/>
<path d="M1 365.871C1 365.871 4.94778 364.667 11.8709 362.649" stroke="#263238" stroke-width="1.193" stroke-linecap="round" stroke-linejoin="round"/>
<path d="M593.849 285.072C567.504 279.285 540.55 276.736 513.587 277.481C457.825 279.354 397.476 286.727 322.86 296.35C248.244 305.972 141.988 252.808 69.7381 272.532C-2.51197 292.257 2.97427 298.193 2.97427 298.193" stroke="#263238" stroke-width="1.193" stroke-linecap="round" stroke-linejoin="round"/>
<path d="M614.4 290.413C614.4 290.413 611.585 289.484 606.49 288.134" stroke="#263238" stroke-width="1.193" stroke-linecap="round" stroke-linejoin="round"/>
<path d="M480.61 153.33C479.807 150.068 477.934 147.169 475.29 145.097C472.646 143.025 469.383 141.899 466.024 141.899C462.665 141.899 459.402 143.025 456.758 145.097C454.114 147.169 452.24 150.068 451.438 153.33H480.61Z" stroke="#263238" stroke-width="1.193" stroke-linecap="round" stroke-linejoin="round"/>
<path d="M628 153.331C627.118 149.613 625.113 146.257 622.256 143.72C619.399 141.183 615.83 139.587 612.035 139.15C613.228 132.845 613.014 126.355 611.406 120.142C609.798 113.93 606.837 108.15 602.735 103.216C598.633 98.2812 593.49 94.3146 587.676 91.5994C581.862 88.8843 575.52 87.4879 569.103 87.51C558.856 87.5104 548.936 91.1151 541.079 97.693C533.222 104.271 527.929 113.403 526.127 123.49C522.007 120.268 517.063 118.269 511.861 117.721C506.659 117.174 501.408 118.101 496.707 120.395C492.006 122.69 488.045 126.259 485.276 130.697C482.507 135.135 481.041 140.262 481.047 145.493C481.055 148.156 481.441 150.805 482.193 153.36L628 153.331Z" stroke="#263238" stroke-width="1.193" stroke-linecap="round" stroke-linejoin="round"/>
<path d="M220.987 188.367C220.587 186.703 219.639 185.222 218.295 184.162C216.951 183.102 215.289 182.526 213.577 182.526C211.866 182.526 210.204 183.102 208.86 184.162C207.516 185.222 206.567 186.703 206.168 188.367H220.987Z" stroke="#263238" stroke-width="1.193" stroke-linecap="round" stroke-linejoin="round"/>
<path d="M295.805 188.367C295.364 186.47 294.348 184.754 292.896 183.455C291.444 182.157 289.627 181.338 287.692 181.11C288.39 178.182 288.485 175.143 287.97 172.177C287.455 169.211 286.341 166.381 284.696 163.86C283.052 161.339 280.911 159.179 278.404 157.513C275.897 155.846 273.077 154.708 270.116 154.167C267.155 153.626 264.115 153.694 261.181 154.367C258.247 155.039 255.481 156.303 253.051 158.08C250.621 159.857 248.579 162.11 247.049 164.702C245.518 167.294 244.532 170.171 244.15 173.157C242.058 171.522 239.55 170.508 236.91 170.23C234.27 169.952 231.605 170.422 229.219 171.586C226.832 172.749 224.821 174.56 223.415 176.811C222.008 179.062 221.262 181.663 221.262 184.318C221.268 185.674 221.464 187.022 221.842 188.324L295.805 188.367Z" stroke="#263238" stroke-width="1.193" stroke-linecap="round" stroke-linejoin="round"/>
<path d="M288.274 211.793C288.023 210.742 287.426 209.806 286.578 209.136C285.73 208.466 284.681 208.102 283.6 208.102C282.52 208.102 281.47 208.466 280.622 209.136C279.774 209.806 279.177 210.742 278.927 211.793H288.274Z" stroke="#263238" stroke-width="1.193" stroke-linecap="round" stroke-linejoin="round"/>
<path d="M335.501 211.793C335.219 210.6 334.575 209.524 333.658 208.711C332.741 207.898 331.596 207.388 330.378 207.25C330.536 206.403 330.613 205.543 330.61 204.681C330.567 201.219 329.242 197.896 326.891 195.355C324.54 192.813 321.33 191.234 317.882 190.922C314.434 190.609 310.993 191.586 308.223 193.664C305.454 195.742 303.553 198.773 302.889 202.17C301.568 201.14 299.984 200.501 298.318 200.326C296.651 200.152 294.969 200.45 293.464 201.185C291.958 201.92 290.69 203.064 289.803 204.485C288.916 205.907 288.446 207.549 288.447 209.224C288.449 210.079 288.571 210.929 288.81 211.75L335.501 211.793Z" stroke="#263238" stroke-width="1.193" stroke-linecap="round" stroke-linejoin="round"/>
<path d="M187.721 378.993C187.21 379 186.707 378.865 186.269 378.601C185.634 378.21 185.175 377.589 184.986 376.867C184.796 376.146 184.892 375.379 185.253 374.726C185.964 373.478 365.414 177.787 447.519 106.031C447.805 105.801 448.168 105.688 448.535 105.715C448.901 105.742 449.243 105.906 449.493 106.176C449.732 106.464 449.85 106.833 449.823 107.206C449.796 107.58 449.626 107.928 449.348 108.179C367.649 179.631 190.856 376.337 190.144 377.571C189.903 378.002 189.551 378.36 189.125 378.61C188.699 378.86 188.214 378.992 187.721 378.993Z" fill="#263238"/>
<path d="M197.633 340.053C197.633 340.053 206.53 330.561 211.872 330.561C217.213 330.561 227.3 339.458 226.705 344.204C226.11 348.95 217.213 344.799 217.213 344.799C217.213 344.799 208.896 356.076 200.594 354.291C192.292 352.506 197.633 340.053 197.633 340.053Z" fill="#FFB600" stroke="#263238" stroke-width="1.193" stroke-linecap="round" stroke-linejoin="round"/>
<path d="M217.257 344.769C217.257 344.769 222.699 348.543 223.178 351.199C223.657 353.855 217.14 361.359 209.898 363.042C202.656 364.726 198.78 360.618 200.957 356.758C203.135 352.897 211.77 345.118 217.257 344.769Z" fill="#FFB600" stroke="#263238" stroke-width="1.193" stroke-linecap="round" stroke-linejoin="round"/>
<path d="M440.771 310.386V114.028C440.771 114.028 436.809 128.237 436.809 129.268" stroke="#263238" stroke-width="1.193" stroke-linecap="round" stroke-linejoin="round"/>
<path d="M522.657 320.735H372.09V441.374H522.657V320.735Z" fill="#FFB600" stroke="#263238" stroke-width="1.193" stroke-linecap="round" stroke-linejoin="round"/>
<path d="M442.919 320.227V313.318C442.919 312.86 442.737 312.421 442.413 312.097C442.089 311.773 441.65 311.591 441.192 311.591C440.734 311.591 440.295 311.773 439.971 312.097C439.647 312.421 439.465 312.86 439.465 313.318V320.227H442.919Z" fill="#263238"/>
<path d="M456.736 303.419V303.767C456.595 303.503 456.386 303.282 456.131 303.126C455.876 302.97 455.583 302.886 455.284 302.882C454.822 302.882 454.379 303.066 454.053 303.392C453.726 303.719 453.543 304.162 453.543 304.624V323.071C453.543 324.481 452.983 325.834 451.988 326.832C450.992 327.831 449.641 328.394 448.231 328.397C447.5 328.398 446.778 328.245 446.111 327.948C445.726 328.521 445.559 329.214 445.639 329.9C445.718 330.587 446.04 331.222 446.547 331.692C447.102 331.797 447.666 331.85 448.231 331.852C449.384 331.852 450.525 331.625 451.591 331.183C452.656 330.742 453.624 330.095 454.44 329.28C455.255 328.465 455.902 327.497 456.343 326.431C456.784 325.366 457.011 324.224 457.011 323.071V314.522H460.988L456.736 303.419Z" fill="#263238"/>
<path d="M440.915 112.184C440.915 112.184 443.992 101.255 441.263 102.271C438.535 103.287 440.915 112.184 440.915 112.184Z" stroke="#263238" stroke-width="1.193" stroke-linecap="round" stroke-linejoin="round"/>
<path d="M440.915 112.184C440.915 112.184 429.304 108.077 430.334 111.836C431.365 115.595 440.915 112.184 440.915 112.184Z" stroke="#263238" stroke-width="1.193" stroke-linecap="round" stroke-linejoin="round"/>
<path d="M190.536 207.439C190.536 207.439 176.211 199.413 148.112 203.433C120.013 207.453 114.658 230.617 119.244 254.696C123.83 278.774 150.405 299.166 154.426 297.454C158.446 295.741 153.279 241.837 162.452 231.517C171.625 221.198 201.436 222.925 203.091 214.899C204.745 206.873 190.536 207.439 190.536 207.439Z" fill="#263238" stroke="#263238" stroke-width="1.193" stroke-linecap="round" stroke-linejoin="round"/>
<path d="M140.594 221.735L143.496 240.705C143.496 240.705 125.499 289.834 128.417 296.656C131.334 303.477 158.562 305.887 158.562 305.887C158.562 305.887 202.829 311.242 215.964 305.887C229.099 300.531 222.292 284.972 220.826 280.604C219.361 276.235 211.102 241.198 211.102 241.198C211.102 241.198 214.005 232.925 214.005 228.557C214.005 224.188 213.511 212.011 211.567 209.094C209.622 206.176 175.572 202.766 160.492 205.204C145.412 207.642 138.649 211.532 140.594 221.735Z" fill="#757575" stroke="#263238" stroke-width="1.193" stroke-linecap="round" stroke-linejoin="round"/>
<path d="M148.388 243.636C148.388 243.636 147.894 285.944 150.333 294.217C152.771 302.49 162.495 312.214 182.916 309.776C203.337 307.337 205.297 287.889 205.297 287.889L203.845 242.664L148.388 243.636Z" fill="white" stroke="#263238" stroke-width="1.193" stroke-linecap="round" stroke-linejoin="round"/>
<path d="M183.411 274.028C183.414 274.752 183.201 275.461 182.801 276.064C182.401 276.668 181.831 277.139 181.163 277.418C180.495 277.697 179.759 277.771 179.049 277.632C178.338 277.492 177.685 277.145 177.172 276.634C176.659 276.123 176.309 275.472 176.167 274.762C176.025 274.052 176.096 273.316 176.373 272.646C176.649 271.977 177.118 271.405 177.72 271.003C178.321 270.6 179.029 270.385 179.753 270.385C180.233 270.383 180.708 270.476 181.152 270.658C181.595 270.841 181.999 271.109 182.339 271.447C182.678 271.786 182.948 272.188 183.132 272.631C183.316 273.074 183.411 273.549 183.411 274.028Z" stroke="#263238" stroke-width="1.193" stroke-miterlimit="10"/>
<path d="M182.917 289.355C182.917 289.838 182.773 290.31 182.505 290.711C182.236 291.113 181.854 291.425 181.408 291.609C180.962 291.793 180.471 291.841 179.997 291.745C179.524 291.65 179.089 291.417 178.749 291.074C178.409 290.732 178.178 290.296 178.085 289.822C177.993 289.348 178.043 288.857 178.23 288.412C178.417 287.967 178.731 287.587 179.134 287.321C179.537 287.054 180.01 286.914 180.493 286.917C180.812 286.917 181.129 286.98 181.424 287.103C181.719 287.225 181.987 287.405 182.212 287.632C182.437 287.858 182.615 288.127 182.736 288.423C182.857 288.719 182.919 289.036 182.917 289.355Z" fill="#263238"/>
<path d="M168.228 258.426C169.781 260.11 170.318 262.127 169.447 262.955C168.577 263.782 166.545 263.085 165.021 261.416C163.497 259.747 162.916 257.73 163.801 256.902C164.687 256.075 166.675 256.757 168.228 258.426Z" fill="#263238"/>
<path d="M187.982 258.426C186.429 260.11 185.877 262.127 186.763 262.955C187.648 263.782 189.665 263.085 191.117 261.416C192.568 259.747 193.221 257.73 192.336 256.902C191.451 256.075 189.535 256.757 187.982 258.426Z" fill="#263238"/>
<path d="M157.837 252.693C158.926 251.085 160.492 249.859 162.315 249.187C164.137 248.515 166.124 248.432 167.997 248.948" stroke="#263238" stroke-width="1.193" stroke-linecap="round" stroke-linejoin="round"/>
<path d="M187.213 249.485C187.213 249.485 194.151 247.352 196.299 253.23" stroke="#263238" stroke-width="1.193" stroke-linecap="round" stroke-linejoin="round"/>
<path d="M210.638 520.924C210.638 520.924 218.287 516.338 222.525 514.538C222.922 514.355 223.329 514.196 223.744 514.059C227.488 512.811 238.098 513.435 248.069 507.194C258.04 500.953 253.062 493.464 245.573 491.591C238.083 489.719 229.985 487.237 229.985 487.237L228.112 457.905C228.112 457.905 205.645 464.146 198.156 467.266C190.667 470.387 195.035 514.683 195.659 518.428C196.283 522.172 196.283 524.669 210.638 520.924Z" fill="#263238" stroke="#263238" stroke-width="1.193" stroke-linecap="round" stroke-linejoin="round"/>
<path d="M235.602 507.194C222.54 509.69 222.54 512.187 208.142 514.683C203.925 515.525 199.624 515.876 195.326 515.728C195.471 517.063 195.587 518.007 195.66 518.428C196.284 522.172 196.284 524.669 210.638 520.924C210.638 520.924 218.287 516.338 222.525 514.538C222.922 514.355 223.329 514.196 223.744 514.059C227.489 512.811 238.099 513.435 248.07 507.194C251.277 505.206 252.917 503.072 253.454 501.04C247.787 503.837 241.789 505.905 235.602 507.194Z" fill="white" stroke="#263238" stroke-width="1.193" stroke-linecap="round" stroke-linejoin="round"/>
<path d="M240.798 491.215C240.798 491.215 240.319 525.264 239.347 532.55C238.374 539.836 239.826 549.096 250.958 549.096C262.09 549.096 284.035 541.839 291.814 540.388C299.594 538.937 312.25 535.511 317.591 523.363C322.932 511.215 290.363 512.652 290.363 512.652L292.308 487.848C292.308 487.848 258.795 494.611 240.798 491.215Z" fill="#263238" stroke="#263238" stroke-width="1.193" stroke-linecap="round" stroke-linejoin="round"/>
<path d="M317.649 523.319C318.245 522.139 318.389 520.781 318.055 519.502C314.721 524.028 310.201 527.545 304.993 529.662C293.382 534.524 271.422 539.821 254.891 542.318C247.329 543.421 242.54 542.187 239.535 540.533C240.609 545.25 243.759 549.125 251.001 549.125C262.191 549.125 284.078 541.868 291.858 540.416C299.637 538.965 312.308 535.467 317.649 523.319Z" fill="white" stroke="#263238" stroke-width="1.193" stroke-linecap="round" stroke-linejoin="round"/>
<path d="M290.421 512.608C290.421 512.608 292.844 520.881 286.066 526.237" stroke="white" stroke-width="1.193" stroke-linecap="round" stroke-linejoin="round"/>
<path d="M237.402 473.217C237.402 473.217 236.647 488.007 237.474 490.968C240.58 502.202 241.567 499.574 264.92 499.081C288.273 498.588 297.707 489.27 300.145 483.435C302.584 477.6 300.145 464.944 299.173 460.561C298.201 456.178 290.465 454.756 287.489 455.22C284.514 455.685 238.853 468.355 237.402 473.217Z" fill="#757575" stroke="#263238" stroke-width="1.193" stroke-linecap="round" stroke-linejoin="round"/>
<path d="M76.8779 510.185V542.87C76.8887 544.149 77.2486 545.401 77.9188 546.49C78.5889 547.58 79.5439 548.466 80.6806 549.053L133.221 576.179C134.156 576.665 135.188 576.933 136.242 576.964C137.295 576.994 138.341 576.785 139.302 576.353L216.705 546.847C217.94 546.293 218.988 545.394 219.725 544.259C220.461 543.123 220.854 541.799 220.856 540.446V500.939L132.321 527.688L76.8779 510.185Z" fill="#FFB600"/>
<path opacity="0.18" d="M136.225 526.512L132.335 527.687L76.8779 510.184V542.869C76.8887 544.148 77.2486 545.4 77.9188 546.49C78.5889 547.579 79.5439 548.465 80.6806 549.052L133.221 576.178C134.15 576.664 135.177 576.932 136.225 576.962V526.512Z" fill="black"/>
<path d="M76.8779 510.185V542.87C76.8887 544.149 77.2486 545.401 77.9188 546.49C78.5889 547.58 79.5439 548.466 80.6806 549.053L133.221 576.179C134.156 576.665 135.188 576.933 136.242 576.964C137.295 576.994 138.341 576.785 139.302 576.353L216.705 546.847C217.94 546.293 218.988 545.394 219.725 544.259C220.461 543.123 220.854 541.799 220.856 540.446V500.939L132.321 527.688L76.8779 510.185Z" stroke="#263238" stroke-width="1.193" stroke-linecap="round" stroke-linejoin="round"/>
<path d="M157.749 455.001L72.8432 482.288C72.1796 482.5 71.601 482.919 71.1913 483.483C70.7816 484.046 70.562 484.726 70.5645 485.423V509.632C70.5773 510.241 70.7591 510.836 71.0897 511.348C71.4203 511.861 71.8866 512.271 72.4368 512.534L131.624 540.706C132.023 540.897 132.456 541.005 132.897 541.025C133.338 541.045 133.779 540.976 134.193 540.822L223.062 507.571C223.69 507.337 224.233 506.918 224.617 506.368C225.001 505.818 225.208 505.164 225.21 504.494L225.37 481.78C225.365 481.028 225.105 480.3 224.633 479.715C224.161 479.13 223.505 478.722 222.772 478.557L159.433 454.914C158.873 454.803 158.295 454.833 157.749 455.001Z" fill="white"/>
<path d="M131.522 540.693C131.921 540.883 132.354 540.992 132.795 541.012C133.236 541.032 133.677 540.963 134.091 540.809L223.062 507.572C223.69 507.339 224.233 506.919 224.616 506.369C225 505.819 225.207 505.166 225.21 504.495L225.369 481.781C225.371 481.007 225.093 480.26 224.585 479.676L132.785 513.581L131.522 540.693Z" fill="#FFB600"/>
<path opacity="0.5" d="M131.522 540.693C131.921 540.883 132.354 540.992 132.795 541.012C133.236 541.032 133.677 540.963 134.091 540.809L223.062 507.572C223.69 507.339 224.233 506.919 224.616 506.369C225 505.819 225.207 505.166 225.21 504.495L225.369 481.781C225.371 481.007 225.093 480.26 224.585 479.676L132.785 513.581L131.522 540.693Z" fill="white"/>
<path d="M70.5645 485.351V509.56C70.5773 510.17 70.7591 510.764 71.0897 511.277C71.4203 511.789 71.8866 512.2 72.4367 512.463L131.624 540.707C132.019 540.898 132.449 541.006 132.887 541.026V513.581L70.666 484.785C70.6098 484.969 70.5757 485.159 70.5645 485.351Z" fill="#FFB600"/>
<path d="M157.749 455.001L72.8432 482.288C72.1796 482.5 71.601 482.919 71.1913 483.483C70.7816 484.046 70.562 484.726 70.5645 485.423V509.632C70.5773 510.241 70.7591 510.836 71.0897 511.348C71.4203 511.861 71.8866 512.271 72.4368 512.534L131.624 540.706C132.023 540.897 132.456 541.005 132.897 541.025C133.338 541.045 133.779 540.976 134.193 540.822L223.062 507.571C223.69 507.337 224.233 506.918 224.617 506.368C225.001 505.818 225.208 505.164 225.21 504.494L225.37 481.78C225.365 481.028 225.105 480.3 224.633 479.715C224.161 479.13 223.505 478.722 222.772 478.557L159.433 454.914C158.873 454.803 158.295 454.833 157.749 455.001V455.001Z" stroke="#263238" stroke-width="1.193" stroke-linecap="round" stroke-linejoin="round"/>
<path d="M274.368 410.473C274.368 410.473 285.544 415.814 291.393 426.526C297.242 437.237 292.844 457.643 289.434 463.972C286.023 470.3 263.178 473.217 255.398 473.217C247.619 473.217 246.153 472.244 246.153 472.244C246.153 472.244 221.349 477.107 205.776 480.024C190.202 482.941 194.164 446.468 198.969 429.922C203.773 413.376 231.073 405.118 242.263 405.118C253.454 405.118 274.368 410.473 274.368 410.473Z" fill="#263238" stroke="#263238" stroke-width="1.193" stroke-linecap="round" stroke-linejoin="round"/>
<path d="M246.153 472.245C246.153 472.245 267.068 464.988 275.82 446.468" stroke="white" stroke-width="1.193" stroke-linecap="round" stroke-linejoin="round"/>
<path d="M266.096 461.533C272.836 458.707 278.951 454.579 284.093 449.385" stroke="white" stroke-width="1.193" stroke-linecap="round" stroke-linejoin="round"/>
<path d="M216.967 426.526C216.967 426.526 222.772 457.165 219.869 469.806C216.967 482.448 199.927 484.407 196.038 482.941C192.148 481.475 194.093 451.33 194.093 436.25C194.093 421.17 209.187 422.142 216.967 426.526Z" fill="#757575" stroke="#263238" stroke-width="1.193" stroke-linecap="round" stroke-linejoin="round"/>
<path d="M92.9306 344.798C92.9306 344.798 89.5343 364.726 91.9582 374.479C93.193 379.912 95.5079 385.04 98.7652 389.559C98.7652 389.559 86.6025 407.557 89.0409 422.622C91.4792 437.687 97.7492 439.647 97.7492 439.647C97.7492 439.647 92.4081 467.383 102.103 477.107C111.799 486.831 133.236 497.528 157.067 493.159C180.899 488.791 196.952 487.804 201.814 479.531C206.676 471.258 203.759 434.785 203.759 434.785C203.759 434.785 202.786 394.421 201.814 369.603C200.841 344.784 197.46 324.856 185.761 315.132C174.063 305.408 122.524 320.488 106.966 330.691C91.4066 340.894 92.9306 344.798 92.9306 344.798Z" fill="#FFB600"/>
<path opacity="0.3" d="M96.3993 344.799C96.3993 344.799 92.9886 364.741 95.4269 374.48C96.6545 379.915 98.9701 385.044 102.234 389.56C102.234 389.56 90.0713 407.557 92.5096 422.623C94.948 437.688 101.218 439.647 101.218 439.647C101.218 439.647 95.8623 467.383 105.572 477.108C115.282 486.832 136.762 497.529 160.652 493.16C184.542 488.791 200.551 487.805 205.413 479.532C210.275 471.259 207.358 434.785 207.358 434.785C207.358 434.785 206.386 394.422 205.413 369.603C204.441 344.785 201.059 324.857 189.361 315.133C177.663 305.409 126.124 320.488 110.565 330.692C95.006 340.895 96.3993 344.799 96.3993 344.799Z" fill="black"/>
<path d="M92.9306 344.798C92.9306 344.798 89.5343 364.726 91.9582 374.479C93.193 379.912 95.5079 385.04 98.7652 389.559C98.7652 389.559 86.6025 407.557 89.0409 422.622C91.4792 437.687 97.7492 439.647 97.7492 439.647C97.7492 439.647 92.4081 467.383 102.103 477.107C111.799 486.831 133.236 497.528 157.067 493.159C180.899 488.791 196.952 487.804 201.814 479.531C206.676 471.258 203.759 434.785 203.759 434.785C203.759 434.785 202.786 394.421 201.814 369.603C200.841 344.784 197.46 324.856 185.761 315.132C174.063 305.408 122.524 320.488 106.966 330.691C91.4066 340.894 92.9306 344.798 92.9306 344.798Z" stroke="#263238" stroke-width="1.193" stroke-linecap="round" stroke-linejoin="round"/>
<path d="M98.7656 389.559C106.296 394.695 114.911 398.023 123.939 399.282C132.967 400.54 142.164 399.696 150.812 396.816" stroke="#263238" stroke-width="1.193" stroke-linecap="round" stroke-linejoin="round"/>
<path d="M97.793 439.647C97.793 439.647 122.597 463.972 163.468 440.619" stroke="#263238" stroke-width="1.193" stroke-linecap="round" stroke-linejoin="round"/>
<path d="M194.586 320.967C194.586 320.967 185.355 306.859 172.699 299.08C160.043 291.3 127.474 285.466 114.339 283.027C101.204 280.589 87.0961 281.576 83.2064 296.09C79.3167 310.604 79.7957 335.002 83.6854 345.698C87.5751 356.395 103.627 362.723 116.284 355.437C128.94 348.151 163.947 319.922 176.11 318.47C188.272 317.019 193.614 326.322 194.586 320.967Z" fill="#757575"/>
<path opacity="0.3" d="M167.605 318.282C175.021 315.191 156.473 320.749 155.239 318.892C154.005 317.034 168.214 307.774 171.306 306.54C174.397 305.307 153.381 309.632 154.005 306.54C154.629 303.449 174.397 302.825 160.798 299.733C147.198 296.642 102.742 288.601 94.0338 285.51C93.3677 285.293 92.7369 284.98 92.1615 284.581C89.9096 285.742 87.9404 287.384 86.393 289.391C84.8456 291.397 83.7578 293.719 83.2064 296.192C79.3167 310.778 79.7957 335.104 83.6854 345.8C87.0816 355.118 99.6507 361.113 111.262 357.702C116.617 353.348 121.567 347.629 129.941 342.361C146.589 331.823 160.188 321.315 167.605 318.282Z" fill="black"/>
<path d="M194.586 320.967C194.586 320.967 185.355 306.859 172.699 299.08C160.043 291.3 127.474 285.466 114.339 283.027C101.204 280.589 87.0961 281.576 83.2064 296.09C79.3167 310.604 79.7957 335.002 83.6854 345.698C87.5751 356.395 103.627 362.723 116.284 355.437C128.94 348.151 163.947 319.922 176.11 318.47C188.272 317.019 193.614 326.322 194.586 320.967Z" stroke="#263238" stroke-width="1.193" stroke-linecap="round" stroke-linejoin="round"/>
<path d="M247.126 387.121C247.126 387.121 258.316 388.572 265.602 391.475C272.888 394.378 277.765 412.39 274.847 414.814C271.93 417.237 266.139 414.335 266.139 414.335C261.564 415.944 256.837 417.082 252.032 417.731C246.153 418.253 239.825 390.532 247.126 387.121Z" fill="#FFB600" stroke="#263238" stroke-width="1.193" stroke-linecap="round" stroke-linejoin="round"/>
<path d="M210.159 385.655C210.159 385.655 212.104 385.655 222.801 380.793C233.498 375.931 242.264 375.931 249.071 386.599C255.878 397.266 258.795 410.445 254.877 418.224C250.958 426.004 236.4 431.359 228.606 431.359C220.813 431.359 219.898 421.2 219.898 421.2C219.898 421.2 218.926 405.147 214.093 399.313C209.259 393.478 208.214 387.121 210.159 385.655Z" fill="#757575" stroke="#263238" stroke-width="1.193" stroke-linecap="round" stroke-linejoin="round"/>
<path d="M174.165 320.966C184.861 317.076 198.49 319.515 203.352 333.129C208.214 346.743 212.583 386.627 212.583 386.627C212.583 386.627 224.745 388.078 229.608 393.449C234.47 398.819 236.865 412.418 235.936 419.225C235.007 426.032 217.938 438.674 198.49 439.167C179.041 439.661 164.919 430.459 158.112 405.597C151.305 380.734 154.005 342.955 154.005 342.955C154.005 342.955 156.472 331.823 160.188 329.341" fill="#FFB600"/>
<path opacity="0.3" d="M235.936 419.226C236.908 412.419 234.484 398.791 229.607 393.449C229.419 393.232 229.187 393.028 228.983 392.825C229.566 397.196 229.915 401.596 230.028 406.004C231.001 434.553 191.102 429.778 183.061 409.095C178.707 397.963 177.488 349.124 164.513 345.423C157.024 343.289 154.469 349.153 153.656 354.509C153.395 368.515 153.86 390.097 158.112 405.598C164.919 430.416 179.027 439.647 198.49 439.168C217.953 438.689 234.963 426.033 235.936 419.226Z" fill="black"/>
<path d="M174.165 320.966C184.861 317.076 198.49 319.515 203.352 333.129C208.214 346.743 212.583 386.627 212.583 386.627C212.583 386.627 224.745 388.078 229.608 393.448C234.47 398.819 236.865 412.418 235.936 419.225C235.007 426.032 217.938 438.674 198.49 439.167C179.041 439.661 164.919 430.459 158.112 405.597C151.305 380.734 154.005 342.955 154.005 342.955C154.005 342.955 156.472 331.823 160.188 329.341" stroke="#263238" stroke-width="1.193" stroke-linecap="round" stroke-linejoin="round"/>
<path d="M212.583 386.627C212.583 386.627 216.385 404.348 196.85 414.072" stroke="#263238" stroke-width="1.193" stroke-linecap="round" stroke-linejoin="round"/>
<path d="M115.805 77.7136C115.805 73.6787 117.662 70.7034 121.857 70.7034C126.051 70.7034 127.996 73.6061 127.996 77.7136V91.8646C127.996 95.8995 126.124 98.8748 121.857 98.8748C117.59 98.8748 115.805 95.972 115.805 91.8646V77.7136ZM117.619 91.9952C117.619 95.0141 118.809 97.2202 121.857 97.2202C124.905 97.2202 126.211 95.0141 126.211 91.9952V77.5975C126.211 74.5931 124.992 72.3725 121.857 72.3725C118.722 72.3725 117.619 74.5931 117.619 77.5975V91.9952Z" fill="#263238"/>
<path d="M130.885 77.7136C130.885 73.6787 132.743 70.7034 136.937 70.7034C141.132 70.7034 143.076 73.6061 143.076 77.7136V91.8646C143.076 95.8995 141.219 98.8748 136.937 98.8748C132.655 98.8748 130.885 95.972 130.885 91.8646V77.7136ZM132.699 91.9952C132.699 95.0141 133.889 97.2202 136.937 97.2202C139.985 97.2202 141.291 95.0141 141.291 91.9952V77.5975C141.291 74.5931 140.072 72.3725 136.937 72.3725C133.802 72.3725 132.699 74.5931 132.699 77.5975V91.9952Z" fill="#263238"/>
<path d="M151.828 70.9507C156.095 70.9507 157.764 73.6358 157.764 77.6706V80.6895C157.764 85.0437 155.732 87.2498 151.349 87.2498H147.909V98.6577H146.139V70.9507H151.828ZM151.349 85.5952C154.557 85.5952 155.936 84.1438 155.936 80.8056V77.5545C155.936 74.5501 154.905 72.6053 151.828 72.6053H147.909V85.6678L151.349 85.5952Z" fill="#263238"/>
<path d="M172.162 77.6414V78.222H170.42V77.5108C170.42 74.608 169.317 72.3729 166.313 72.3729C163.309 72.3729 162.191 74.55 162.191 77.4818C162.191 84.2017 172.206 84.3178 172.206 91.9957C172.206 95.987 170.464 98.9188 166.226 98.9188C161.988 98.9188 160.261 96.016 160.261 91.9957V90.5443H162.002V92.0828C162.002 94.9855 163.149 97.1916 166.197 97.1916C169.245 97.1916 170.391 95.0436 170.391 92.0828C170.391 85.4354 160.377 85.3193 160.377 77.5689C160.377 73.4179 162.191 70.7183 166.269 70.6748C170.348 70.6312 172.162 73.6356 172.162 77.6414Z" fill="#263238"/>
<path d="M176.72 95.1743V98.6577H174.949V95.1743H176.72Z" fill="#263238"/>
<path d="M181.668 95.1743V98.6577H179.897V95.1743H181.668Z" fill="#263238"/>
<path d="M186.618 95.1743V98.6577H184.833V95.1743H186.618Z" fill="#263238"/>
<path d="M121.654 111.255C126.008 111.255 127.59 113.94 127.59 117.99V120.994C127.59 125.348 125.573 127.569 121.189 127.569H117.735V138.962H115.921V111.255H121.654ZM121.189 125.9C124.382 125.9 125.776 124.448 125.776 121.11V117.859C125.776 114.855 124.745 112.924 121.654 112.924H117.735V125.9H121.189Z" fill="#263238"/>
<path d="M132.466 132.823L131.015 138.963H129.346L135.398 111.212H138.054L144.222 138.963H142.408L140.957 132.823H132.466ZM132.742 131.241H140.812L136.733 113.317L132.742 131.241Z" fill="#263238"/>
<path d="M158.867 117.99V120.051H157.126V117.874C157.126 114.971 155.979 112.649 152.931 112.649C149.883 112.649 148.737 114.913 148.737 117.874V132.286C148.737 135.189 149.883 137.467 152.931 137.467C155.979 137.467 157.126 135.247 157.126 132.286V126.306H153.396V124.652H158.809V132.17C158.809 136.161 157.068 139.166 152.829 139.166C148.591 139.166 146.864 136.161 146.864 132.17V117.99C146.864 113.999 148.606 110.994 152.829 110.994C157.053 110.994 158.867 114.028 158.867 117.99Z" fill="#263238"/>
<path d="M171.306 124.086V125.74H163.744V137.351H172.844V139.02H161.915V111.255H172.844V112.924H163.744V124.086H171.306Z" fill="#263238"/>
<path d="M183.613 138.962H181.944V111.255H184.325L192.583 134.652V111.255H194.238V138.962H192.22L183.512 114.289L183.613 138.962Z" fill="#263238"/>
<path d="M197.314 117.99C197.314 113.955 199.172 110.994 203.367 110.994C207.561 110.994 209.506 113.897 209.506 117.99V132.17C209.506 136.205 207.634 139.166 203.367 139.166C199.1 139.166 197.314 136.263 197.314 132.17V117.99ZM199.129 132.286C199.129 135.29 200.319 137.511 203.367 137.511C206.415 137.511 207.721 135.29 207.721 132.286V117.874C207.721 114.869 206.502 112.649 203.367 112.649C200.232 112.649 199.129 114.869 199.129 117.874V132.286Z" fill="#263238"/>
<path d="M217.257 138.962V112.924H211.64V111.255H224.702V112.924H219.042V138.962H217.257Z" fill="#263238"/>
<path d="M242.047 124.753V126.408H234.877V138.962H233.062V111.255H243.585V112.924H234.877V124.753H242.047Z" fill="#263238"/>
<path d="M246.284 117.99C246.284 113.955 248.142 110.994 252.336 110.994C256.531 110.994 258.476 113.897 258.476 117.99V132.17C258.476 136.205 256.618 139.166 252.336 139.166C248.055 139.166 246.284 136.263 246.284 132.17V117.99ZM248.098 132.286C248.098 135.29 249.289 137.511 252.336 137.511C255.384 137.511 256.691 135.29 256.691 132.286V117.874C256.691 114.869 255.471 112.649 252.336 112.649C249.201 112.649 248.098 114.869 248.098 117.874V132.286Z" fill="#263238"/>
<path d="M263.178 132.271C263.178 135.174 264.296 137.54 267.344 137.54C270.392 137.54 271.495 135.247 271.495 132.271V111.255H273.193V132.199C273.193 136.147 271.538 139.195 267.3 139.195C263.062 139.195 261.364 136.147 261.364 132.199V111.255H263.178V132.271Z" fill="#263238"/>
<path d="M277.983 138.962H276.328V111.255H278.694L287.01 134.652V111.255H288.679V138.962H286.647L277.939 114.289L277.983 138.962Z" fill="#263238"/>
<path d="M297.896 111.255C302.177 111.255 304.035 114.071 304.035 118.149V132.068C304.035 136.147 302.177 138.962 297.896 138.962H291.8V111.255H297.896ZM297.896 137.293C300.987 137.293 302.25 135.203 302.25 132.155V118.062C302.25 115.014 300.944 112.924 297.896 112.924H293.672V137.293H297.896Z" fill="#263238"/>
<path d="M389.973 395.394L409.726 348.761H421.555V395.394H426.678V405.249H421.555V417.774H410.902V405.249H389.973V395.394ZM410.873 395.394V369.472L399.929 395.394H410.873Z" fill="#263238"/>
<path d="M430.727 365.321C430.727 354.29 436.532 347.904 447.185 347.904C457.839 347.904 463.644 354.218 463.644 365.321V401.199C463.644 412.244 457.839 418.616 447.185 418.616C436.532 418.616 430.727 412.302 430.727 401.199V365.321ZM441.568 401.896C441.568 406.83 443.731 408.703 447.185 408.703C450.64 408.703 452.802 406.83 452.802 401.896V364.639C452.802 359.704 450.625 357.832 447.185 357.832C443.746 357.832 441.568 359.704 441.568 364.639V401.896Z" fill="#263238"/>
<path d="M468.086 395.394L487.796 348.761H499.625V395.394H504.748V405.249H499.625V417.774H488.971V405.249H468.086V395.394ZM488.971 395.394V369.472L478.042 395.394H488.971Z" fill="#263238"/>
</svg>
