<svg width="616" height="595" viewBox="0 0 616 595" fill="none" xmlns="http://www.w3.org/2000/svg">
<path d="M581.092 89.0703H278.784V514.689H581.092V89.0703Z" fill="#EBEBEB"/>
<path d="M541.84 41.9406C544.909 40.088 548.211 38.6538 551.66 37.6759L553.684 27.9511L570.118 27.6523L572.481 37.3091C575.969 38.1654 579.327 39.4856 582.464 41.2343L590.763 35.8015L602.593 47.2104L597.445 55.6992C599.298 58.7726 600.732 62.0796 601.71 65.5325L611.434 67.5562L611.72 83.9905L602.076 86.3537C601.216 89.8363 599.896 93.1888 598.151 96.3229L603.584 104.635L592.162 116.451L583.673 111.304C580.605 113.161 577.302 114.6 573.853 115.582L571.829 125.307L555.395 125.592L553.032 115.949C549.549 115.089 546.197 113.769 543.063 112.024L534.751 117.456L522.934 106.034L528.082 97.5453C526.217 94.4765 524.777 91.1684 523.803 87.7119L514.079 85.6882L513.793 69.254L523.437 66.8907C524.301 63.4097 525.621 60.0578 527.362 56.9215L521.929 48.6229L533.352 36.793L541.84 41.9406ZM550.601 63.8348C548.169 66.3444 546.536 69.5194 545.91 72.9575C545.283 76.3957 545.691 79.9424 547.082 83.1486C548.473 86.3547 550.783 89.076 553.722 90.9679C556.66 92.8598 560.094 93.8372 563.588 93.7763C567.082 93.7153 570.48 92.6188 573.35 90.6256C576.221 88.6324 578.436 85.8322 579.714 82.5795C580.992 79.3268 581.276 75.768 580.53 72.3538C579.784 68.9396 578.042 65.8235 575.524 63.4002C572.154 60.1639 567.638 58.3953 562.967 58.4819C558.295 58.5684 553.848 60.5031 550.601 63.8619V63.8348Z" fill="#E0E0E0"/>
<path d="M550.601 63.8626C551.527 62.7173 552.638 61.735 553.888 60.956C557.286 58.7442 561.349 57.7838 565.378 58.2396C568.163 58.5151 570.844 59.446 573.201 60.956C575.909 62.7257 578.094 65.1877 579.53 68.0866C581.145 71.3437 581.737 75.013 581.228 78.6126C580.726 82.447 579.002 86.0175 576.311 88.7944C573.619 91.5713 570.105 93.4066 566.288 94.0282C564.493 94.3468 562.659 94.3743 560.855 94.1097C559.129 93.9198 557.442 93.4615 555.857 92.7515C552.91 91.4246 550.377 89.3272 548.523 86.6803C546.553 83.8768 545.435 80.5642 545.302 77.1405C545.17 73.7168 546.029 70.3277 547.776 67.3803C548.492 66.1133 549.409 64.9711 550.492 63.9984C550.587 64.0799 549.433 65.1529 548.074 67.5705C546.179 71.0083 545.491 74.982 546.119 78.8571C546.542 81.5089 547.579 84.0251 549.147 86.2049C550.949 88.6933 553.376 90.6613 556.183 91.9094C559.29 93.2713 562.727 93.6916 566.071 93.1182C569.662 92.5033 572.963 90.7583 575.494 88.1371C578.025 85.5159 579.653 82.1554 580.142 78.5447C580.587 75.1848 580.044 71.7679 578.58 68.7113C577.235 65.9597 575.181 63.6157 572.631 61.9203C570.399 60.4405 567.848 59.5097 565.188 59.2039C561.295 58.7114 557.35 59.5387 553.983 61.5536C551.714 62.7624 550.682 63.9576 550.601 63.8626Z" fill="#E0E0E0"/>
<path d="M541.84 41.9408C541.651 41.8628 541.469 41.7673 541.297 41.6556L539.667 40.7185L533.202 36.9563H533.406L522.065 48.8541V48.5281L527.498 56.8131L527.769 56.881L527.688 57.044C525.965 60.1571 524.668 63.4872 523.831 66.9453V67.1354H523.64L513.997 69.5259L514.269 69.1727C514.378 74.352 514.486 79.8301 514.595 85.607L514.187 85.4032L523.912 87.3998H524.17L524.238 87.6443C525.208 91.057 526.633 94.3235 528.476 97.3554L528.611 97.5863L528.476 97.8172L523.342 106.306L523.274 105.749L535.104 117.158H534.52L542.818 111.725L543.063 111.562L543.321 111.712C546.419 113.427 549.73 114.729 553.168 115.582H553.453L553.534 115.868C554.268 118.883 555.083 122.183 555.898 125.511L555.409 125.144L571.843 124.845L571.354 125.239L573.378 115.515L573.446 115.216L573.744 115.134C577.145 114.167 580.402 112.751 583.428 110.924L583.7 110.774L583.958 110.924L592.447 116.085H591.822L603.231 104.269V104.893L597.798 96.5812L597.622 96.3367L597.771 96.0651C599.498 92.9748 600.804 89.6678 601.655 86.2317L601.723 85.9329H602.009L611.665 83.5832L611.299 84.0586C611.208 78.4447 611.118 72.9667 611.027 67.6244L611.394 68.0726L601.669 66.0353H601.397L601.329 65.7637C600.361 62.3505 598.945 59.0805 597.119 56.0389L596.983 55.8081L597.038 55.5228L602.199 47.0341L602.267 47.5638L590.464 36.1142H590.953L582.627 41.547L582.451 41.6692L582.26 41.5606C579.158 39.8218 575.837 38.5062 572.386 37.6489H572.183V37.4588C571.327 33.9411 570.566 30.79 569.846 27.802L570.145 28.0329L553.711 28.2366L553.928 28.06C553.086 31.9445 552.407 35.1227 551.837 37.7712V37.8662H551.742C549.148 38.5905 546.628 39.5592 544.217 40.7592L542.452 41.6828C542.265 41.7979 542.07 41.8978 541.868 41.9816C542.042 41.8501 542.224 41.7277 542.411 41.6149C542.791 41.384 543.362 41.0309 544.149 40.6098C546.538 39.339 549.05 38.3151 551.647 37.5539L551.538 37.6761C552.068 34.9597 552.706 31.8358 553.494 27.9378V27.7612H553.67L570.104 27.3945H570.335V27.6254C571.069 30.6135 571.857 33.7645 572.726 37.2686L572.481 37.0242C576 37.8779 579.39 39.1979 582.559 40.9494H582.179L590.464 35.5166L590.722 35.3536L590.953 35.5573L602.796 46.9526L603.041 47.1835L602.864 47.4687C601.194 50.1851 599.496 53.0645 597.73 55.971V55.5228C599.607 58.626 601.064 61.9646 602.063 65.4513L601.723 65.1253L611.448 67.149H611.815V67.5293C611.923 72.8625 612.028 78.3361 612.127 83.95V84.3438L611.76 84.4253L602.117 86.8022L602.47 86.449C601.6 89.9734 600.267 93.3668 598.504 96.5405V96.0243L603.937 104.337L604.155 104.662L603.869 104.948L592.46 116.778L592.189 117.063L591.836 116.859L583.456 111.752H583.972C580.866 113.631 577.522 115.084 574.03 116.071L574.383 115.691L572.359 125.416L572.278 125.81H571.87L555.436 126.081H555.042L554.947 125.701C554.132 122.36 553.331 119.073 552.597 116.044L552.95 116.411C549.428 115.529 546.035 114.192 542.859 112.431H543.362L535.049 117.864L534.737 118.068L534.465 117.81C530.391 113.83 526.316 109.959 522.649 106.374L522.391 106.116L522.581 105.817L527.742 97.3282V97.79C525.879 94.6799 524.436 91.3368 523.45 87.848L523.695 88.1196L513.97 86.0823H513.658V85.7699C513.558 80.0021 513.472 74.524 513.4 69.3357V69.0505L513.671 68.9826L523.328 66.6465L523.097 66.8774C523.985 63.3808 525.337 60.0189 527.117 56.881V57.1798L521.685 48.8541L521.576 48.6775L521.725 48.5417L533.202 36.7118L533.297 36.6167L533.406 36.6846L539.654 40.5826L541.27 41.6013C541.466 41.7045 541.656 41.8178 541.84 41.9408Z" fill="#E0E0E0"/>
<path d="M470.127 8.70518C471.972 7.60002 473.954 6.74157 476.022 6.15177L477.231 0.338677L487.064 0.162109L488.422 5.93446C490.511 6.44519 492.521 7.23555 494.398 8.28414L499.369 5.02446L506.445 11.8155L503.362 16.8951C504.522 18.7368 505.422 20.7294 506.038 22.8169L511.865 24.0393L512.041 33.8726L506.255 35.2308C505.745 37.3195 504.954 39.3297 503.906 41.2069L507.165 46.1779L500.374 53.2541L495.172 50.2253C493.34 51.3419 491.367 52.2097 489.305 52.8059L488.096 58.6326L478.249 58.7956L476.891 53.0232C474.807 52.5125 472.801 51.7221 470.928 50.6735L465.957 53.9332L458.881 47.1422L461.896 41.9403C460.794 40.0991 459.935 38.1221 459.343 36.0593L453.53 34.8505L453.353 25.0036L459.126 23.6454C459.64 21.5622 460.43 19.557 461.475 17.6829L458.216 12.7119L465.007 5.62207L470.086 8.70518H470.127ZM475.383 21.8118C473.936 23.3139 472.966 25.2114 472.596 27.2645C472.226 29.3177 472.473 31.4343 473.306 33.3471C474.139 35.2598 475.52 36.8829 477.274 38.0113C479.029 39.1396 481.079 39.7226 483.164 39.6866C485.25 39.6505 487.279 38.9971 488.993 37.8088C490.708 36.6206 492.032 34.9508 492.798 33.0104C493.564 31.07 493.738 28.9461 493.298 26.907C492.857 24.8678 491.822 23.005 490.324 21.5538C489.327 20.5865 488.15 19.8257 486.859 19.315C485.568 18.8042 484.188 18.5537 482.8 18.5776C481.412 18.6016 480.042 18.8997 478.769 19.4547C477.496 20.0097 476.346 20.8108 475.383 21.8118Z" fill="#F5F5F5"/>
<path d="M475.383 21.8119C475.935 21.1324 476.596 20.5495 477.339 20.087C479.377 18.7643 481.811 18.1883 484.225 18.4571C486.022 18.6515 487.74 19.2978 489.22 20.3357C490.7 21.3735 491.892 22.7692 492.687 24.3925C493.165 25.3212 493.491 26.321 493.651 27.3533C493.828 28.4281 493.828 29.5246 493.651 30.5994C493.356 32.8899 492.332 35.0246 490.73 36.6879C489.128 38.3511 487.033 39.4546 484.755 39.8352C483.675 40.0047 482.575 40.0047 481.495 39.8352C480.02 39.6355 478.603 39.1331 477.331 38.3595C476.06 37.5858 474.962 36.5577 474.107 35.3395C473.142 33.9663 472.519 32.3835 472.287 30.7217C471.921 28.3207 472.401 25.8672 473.645 23.7813C474.085 23.0219 474.644 22.3385 475.302 21.7576C475.302 21.7576 474.664 22.4502 473.849 23.9035C473.14 25.1632 472.703 26.5571 472.566 27.9957C472.428 29.4343 472.593 30.8858 473.05 32.257C473.506 33.6281 474.244 34.8886 475.217 35.9574C476.19 37.0263 477.375 37.8799 478.697 38.4634C479.601 38.8732 480.564 39.139 481.55 39.2512C482.569 39.4047 483.607 39.3817 484.619 39.1833C486.772 38.8236 488.752 37.7822 490.268 36.2123C491.784 34.6425 492.756 32.6273 493.04 30.4636C493.21 29.4475 493.21 28.4102 493.04 27.3941C492.884 26.419 492.587 25.4718 492.157 24.5826C491.346 22.9335 490.114 21.5278 488.585 20.508C487.267 19.6205 485.76 19.0531 484.185 18.851C481.833 18.5291 479.441 19.0075 477.394 20.2092C476.049 21.1599 475.424 21.8662 475.383 21.8119Z" fill="#F5F5F5"/>
<path d="M470.127 8.70605L469.801 8.54307L468.837 7.97263L465.007 5.71802H465.115L458.324 12.835V12.6448L461.598 17.6023V17.6973V17.7924C460.575 19.6628 459.799 21.6578 459.289 23.7277V23.8364H459.18L453.408 25.2761L453.571 25.0588C453.571 28.1555 453.693 31.4423 453.761 34.8921L453.571 34.6612L459.397 35.87H459.547V36.0194C460.133 38.0608 460.987 40.0155 462.087 41.8325L462.168 41.9684L462.087 42.1042L459.017 47.1838V46.8579L466.107 53.6489H465.754L470.725 50.3892L470.874 50.2941L471.024 50.3756C472.877 51.4032 474.86 52.1796 476.918 52.6846H477.095V52.8611C477.543 54.6675 478.032 56.6369 478.521 58.6335L478.222 58.4161L488.055 58.2396L487.77 58.4705C488.15 56.6369 488.572 54.6539 488.979 52.6574V52.4672H489.156C491.19 51.881 493.14 51.0318 494.955 49.941L495.118 49.8459L495.281 49.941L500.361 53.0241H499.98C502.289 50.6337 504.571 48.284 506.771 45.9479V46.3282L503.512 41.3572L503.417 41.1942L503.498 41.0448C504.532 39.1923 505.313 37.2099 505.821 35.1502V34.9736H505.984L511.756 33.6154L511.539 33.9007C511.484 30.5504 511.43 27.2726 511.376 24.0673L511.607 24.3389L505.78 23.1166H505.617V22.9536C505.04 20.9089 504.195 18.9496 503.104 17.1269L503.009 16.9911L503.104 16.8553L506.187 11.7892V12.088C503.702 9.68396 501.352 7.41577 499.125 5.29698H499.41L494.425 8.54307L494.317 8.62457H494.208C492.385 7.53667 490.426 6.69626 488.381 6.12548H488.259V6.01682C487.757 3.91161 487.295 2.02372 486.901 0.230894L487.078 0.366712L477.244 0.48895L477.38 0.393876C476.877 2.7164 476.47 4.61788 476.13 6.20697C474.547 6.65238 473.01 7.24818 471.54 7.98621L470.48 8.54307C470.373 8.62007 470.253 8.67966 470.127 8.71964L470.467 8.50233C470.684 8.36651 471.024 8.14919 471.499 7.90472C472.931 7.14116 474.437 6.52674 475.995 6.07115L475.927 6.15264C476.239 4.56355 476.619 2.64849 477.095 0.312385V0.217312H477.203L487.037 0H487.173V0.1494C487.621 1.92864 488.083 3.81654 488.531 5.92175L488.395 5.77234C490.497 6.28165 492.521 7.072 494.412 8.12203H494.194L499.247 4.83519L499.41 4.72653L499.546 4.86235L506.636 11.6534L506.771 11.7892L506.676 11.9657L503.593 17.0454V16.7738C504.722 18.6306 505.595 20.6317 506.187 22.7227L505.984 22.5325L511.81 23.7413H512.028V23.9586C512.096 27.164 512.15 30.4372 512.218 33.8056V34.0229L512.001 34.0908L506.215 35.449L506.432 35.2317C505.919 37.3434 505.124 39.3763 504.069 41.2757V40.9769L507.396 46.0158L507.518 46.2059L507.355 46.3825L500.564 53.4587L500.401 53.6353L500.198 53.513L495.105 50.4299H495.417C493.558 51.5526 491.558 52.4206 489.468 53.0105L489.685 52.7932C489.264 54.7898 488.857 56.7727 488.463 58.6063V58.8508H488.218L478.385 59.0138H478.141V58.7829C477.652 56.7863 477.176 54.8169 476.782 52.9969L477 53.2143C474.814 52.7299 472.703 51.9533 470.725 50.9053H471.024L466.053 54.165L465.862 54.2872L465.699 54.165C463.255 51.7881 460.851 49.4792 458.637 47.374L458.474 47.2246L458.596 47.048L461.679 41.9684V42.24C460.563 40.3797 459.7 38.3792 459.112 36.2911L459.302 36.4677L453.476 35.1502H453.286V34.9601C453.286 31.5102 453.19 28.1691 453.136 25.1267V24.9501H453.299L459.085 23.5919L458.936 23.7413C459.458 21.6373 460.262 19.6134 461.326 17.7245V17.9146L458.094 12.9301L458.026 12.8214L458.107 12.7399C460.905 9.87411 463.214 7.49726 464.98 5.70444H465.048L468.796 8.04054L469.747 8.65173L470.127 8.70605Z" fill="#F5F5F5"/>
<path d="M206.637 30.3828H28.835V324.705H206.637V30.3828Z" fill="#E0E0E0"/>
<path d="M200.729 30.3828H22.9266V324.705H200.729V30.3828Z" fill="#EBEBEB"/>
<path d="M193.163 36.3457H30.4917V318.729H193.163V36.3457Z" fill="#FAFAFA"/>
<path d="M161.49 73.0449H61.4586V282.045H161.49V73.0449Z" fill="#EBEBEB"/>
<path d="M61.4588 208.076C61.2279 188.558 78.7894 169.503 98.1302 166.773C107.352 165.415 117.145 167.303 125.756 163.771C141.131 157.469 146.02 137.042 161.504 130.984L162.21 282.043H61.4588V208.076Z" fill="#E0E0E0"/>
<path d="M451.533 530.377C453.552 529.153 455.727 528.208 457.999 527.566L459.357 521.169L470.154 520.979L471.716 527.321C474.007 527.889 476.213 528.757 478.276 529.902L483.709 526.33L491.478 533.827L488.096 539.409C489.315 541.43 490.261 543.604 490.908 545.874L497.305 547.232L497.495 558.098L491.098 559.579C490.528 561.869 489.66 564.074 488.517 566.139L492.089 571.571L484.592 579.34L478.996 575.958C476.978 577.182 474.803 578.128 472.531 578.77L471.173 585.167L460.375 585.357L458.813 579.001C456.523 578.438 454.317 577.575 452.253 576.434L446.821 580.006L439.052 572.495L442.434 566.913C441.21 564.894 440.264 562.72 439.622 560.448L433.225 559.09L433.035 548.292L439.486 546.784C440.054 544.494 440.921 542.288 442.067 540.224L438.495 534.791L445.992 527.009L451.588 530.404L451.533 530.377ZM457.292 544.774C455.697 546.424 454.628 548.51 454.219 550.767C453.809 553.025 454.079 555.353 454.993 557.458C455.908 559.562 457.426 561.348 459.355 562.59C461.285 563.832 463.539 564.473 465.833 564.433C468.128 564.393 470.358 563.674 472.244 562.366C474.129 561.058 475.584 559.22 476.424 557.085C477.265 554.95 477.453 552.614 476.966 550.372C476.478 548.129 475.337 546.082 473.686 544.489C472.591 543.43 471.299 542.598 469.882 542.039C468.465 541.48 466.952 541.206 465.43 541.233C463.907 541.259 462.405 541.586 461.009 542.193C459.612 542.801 458.349 543.678 457.292 544.774Z" fill="#F5F5F5"/>
<path d="M607.631 594.606C607.631 594.606 608.27 594.606 609.573 594.606H615.482V594.729C584.922 594.878 460.47 595 311.68 595L91.271 594.892L24.4883 594.729H6.32921H1.60268H0H1.60268H6.32921L24.4883 594.661L91.271 594.552L311.68 594.443C460.47 594.443 584.922 594.566 615.482 594.715V594.729H609.573C608.27 594.633 607.631 594.606 607.631 594.606Z" fill="#263238"/>
<path d="M556.821 66.8926H252.408V496.423H556.821V66.8926Z" fill="white"/>
<path d="M556.821 496.423C556.821 493.557 556.686 320.631 556.495 66.8921L556.821 67.2045H252.435L252.788 66.8514C252.788 227.812 252.788 376.657 252.721 496.382L252.435 496.097L556.849 496.382L252.435 496.667H252.055V496.382C252.055 376.657 252.055 227.812 252.055 66.8514V66.5254H252.435H556.821H557.147V66.8514C556.957 320.631 556.821 493.557 556.821 496.423Z" fill="#263238"/>
<path d="M393.769 352.074H281.99C276.971 352.074 272.903 356.142 272.903 361.161V372.787C272.903 377.805 276.971 381.873 281.99 381.873H393.769C398.788 381.873 402.856 377.805 402.856 372.787V361.161C402.856 356.142 398.788 352.074 393.769 352.074Z" fill="#F5F5F5"/>
<path d="M529.372 352.074H420.472C415.454 352.074 411.386 356.142 411.386 361.161V372.787C411.386 377.805 415.454 381.873 420.472 381.873H529.372C534.391 381.873 538.459 377.805 538.459 372.787V361.161C538.459 356.142 534.391 352.074 529.372 352.074Z" fill="#F5F5F5"/>
<path d="M531.165 413.139H281.378C276.36 413.139 272.292 417.207 272.292 422.225V433.851C272.292 438.869 276.36 442.938 281.378 442.938H531.165C536.183 442.938 540.251 438.869 540.251 433.851V422.225C540.251 417.207 536.183 413.139 531.165 413.139Z" fill="#F5F5F5"/>
<path d="M332.569 340.08C332.569 340.27 320.019 340.433 304.522 340.433C289.025 340.433 276.476 340.27 276.476 340.08C276.476 339.89 289.025 339.727 304.522 339.727C320.019 339.727 332.569 339.89 332.569 340.08Z" fill="#263238"/>
<path d="M465.292 340.08C465.292 340.27 455.405 340.433 443.208 340.433C431.011 340.433 421.11 340.27 421.11 340.08C421.11 339.89 430.998 339.727 443.208 339.727C455.418 339.727 465.292 339.89 465.292 340.08Z" fill="#263238"/>
<path d="M368.181 400.845C368.181 401.035 347.808 401.198 322.681 401.198C297.555 401.198 277.182 401.035 277.182 400.845C277.182 400.655 297.555 400.492 322.681 400.492C347.808 400.492 368.181 400.655 368.181 400.845Z" fill="#263238"/>
<path d="M531.409 284.422H276.353C271.47 284.422 267.511 288.381 267.511 293.264V308.15C267.511 313.033 271.47 316.992 276.353 316.992H531.409C536.293 316.992 540.251 313.033 540.251 308.15V293.264C540.251 288.381 536.293 284.422 531.409 284.422Z" fill="#E0E0E0"/>
<path d="M461.978 300.707C461.978 300.91 437.775 301.06 407.935 301.06C378.096 301.06 353.879 300.91 353.879 300.707C353.879 300.503 378.082 300.354 407.935 300.354C437.789 300.354 461.978 300.517 461.978 300.707Z" fill="#263238"/>
<path d="M531.409 86.3965H276.353C271.47 86.3965 267.511 90.3551 267.511 95.2384V110.124C267.511 115.007 271.47 118.966 276.353 118.966H531.409C536.293 118.966 540.251 115.007 540.251 110.124V95.2384C540.251 90.3551 536.293 86.3965 531.409 86.3965Z" fill="#E0E0E0"/>
<path d="M461.978 102.681C461.978 102.871 437.775 103.034 407.935 103.034C378.096 103.034 353.879 102.871 353.879 102.681C353.879 102.491 378.082 102.328 407.935 102.328C437.789 102.328 461.978 102.478 461.978 102.681Z" fill="#263238"/>
<path d="M556.822 126.843C556.822 127.047 488.613 127.21 404.486 127.21C320.359 127.21 252.123 127.047 252.123 126.843C252.123 126.64 320.332 126.49 404.486 126.49C488.64 126.49 556.822 126.653 556.822 126.843Z" fill="#EBEBEB"/>
<path d="M556.822 270.935C556.822 271.139 488.613 271.288 404.486 271.288C320.359 271.288 252.123 271.139 252.123 270.935C252.123 270.731 320.332 270.582 404.486 270.582C488.64 270.582 556.822 270.745 556.822 270.935Z" fill="#EBEBEB"/>
<path d="M393.769 159.508H281.99C276.971 159.508 272.903 163.576 272.903 168.594V180.22C272.903 185.239 276.971 189.307 281.99 189.307H393.769C398.788 189.307 402.856 185.239 402.856 180.22V168.594C402.856 163.576 398.788 159.508 393.769 159.508Z" fill="#F5F5F5"/>
<path d="M529.372 159.508H420.472C415.454 159.508 411.386 163.576 411.386 168.594V180.22C411.386 185.239 415.454 189.307 420.472 189.307H529.372C534.391 189.307 538.459 185.239 538.459 180.22V168.594C538.459 163.576 534.391 159.508 529.372 159.508Z" fill="#F5F5F5"/>
<path d="M531.165 220.572H281.378C276.36 220.572 272.292 224.64 272.292 229.659V241.285C272.292 246.303 276.36 250.371 281.378 250.371H531.165C536.183 250.371 540.251 246.303 540.251 241.285V229.659C540.251 224.64 536.183 220.572 531.165 220.572Z" fill="#F5F5F5"/>
<path d="M332.569 147.515C332.569 147.705 320.019 147.868 304.522 147.868C289.025 147.868 276.476 147.705 276.476 147.515C276.476 147.325 289.025 147.162 304.522 147.162C320.019 147.162 332.569 147.325 332.569 147.515Z" fill="#263238"/>
<path d="M465.292 147.515C465.292 147.705 455.405 147.868 443.208 147.868C431.011 147.868 421.11 147.705 421.11 147.515C421.11 147.325 430.998 147.162 443.208 147.162C455.418 147.162 465.292 147.325 465.292 147.515Z" fill="#263238"/>
<path d="M368.181 208.281C368.181 208.471 347.808 208.634 322.681 208.634C297.555 208.634 277.182 208.471 277.182 208.281C277.182 208.091 297.555 207.928 322.681 207.928C347.808 207.928 368.181 208.091 368.181 208.281Z" fill="#263238"/>
<path d="M530.853 461.041C530.853 461.244 510.982 461.394 486.467 461.394C461.951 461.394 442.094 461.244 442.094 461.041C442.094 460.837 461.951 460.688 486.467 460.688C510.982 460.688 530.853 460.85 530.853 461.041Z" fill="#263238"/>
<path d="M382.904 177.531C382.216 177.757 381.512 177.934 380.799 178.061C375.465 179.042 369.957 178.255 365.111 175.82C364.21 175.352 363.397 174.732 362.707 173.986C361.951 173.184 361.446 172.179 361.254 171.093C361.13 170.514 361.127 169.916 361.246 169.336C361.365 168.756 361.604 168.207 361.947 167.725C362.349 167.226 362.89 166.857 363.501 166.663C364.112 166.47 364.767 166.461 365.383 166.638C365.708 166.733 366.01 166.894 366.27 167.111C366.529 167.329 366.741 167.598 366.891 167.901C367.191 168.516 367.281 169.213 367.149 169.884C366.866 171.201 366.216 172.411 365.274 173.375C363.421 175.454 361.091 177.053 358.483 178.033C355.677 179.094 352.633 179.366 349.682 178.821C348.114 178.554 346.636 177.906 345.377 176.933C344.698 176.436 344.152 175.78 343.787 175.022C343.422 174.264 343.25 173.428 343.285 172.587C343.374 171.724 343.698 170.901 344.222 170.21C344.737 169.473 345.498 168.943 346.368 168.716C346.828 168.625 347.304 168.655 347.749 168.803C348.194 168.95 348.593 169.211 348.908 169.558C349.504 170.259 349.828 171.151 349.818 172.071C349.834 172.97 349.619 173.859 349.193 174.652C348.735 175.433 348.103 176.097 347.346 176.594C345.839 177.496 344.198 178.152 342.484 178.536C339.183 179.473 335.584 180.492 331.917 179.663C330.079 179.265 328.392 178.351 327.055 177.028C326.361 176.355 325.815 175.545 325.45 174.649C325.086 173.754 324.91 172.793 324.936 171.827C324.95 171.205 325.089 170.594 325.343 170.027C325.597 169.46 325.962 168.95 326.416 168.526C326.917 168.131 327.52 167.886 328.154 167.818C328.789 167.751 329.429 167.864 330.002 168.146C330.592 168.411 331.069 168.878 331.345 169.463C331.621 170.049 331.68 170.713 331.51 171.338C331.145 172.489 330.397 173.481 329.391 174.149C325.745 176.65 321.554 178.242 317.167 178.794C315.031 179.162 312.837 178.97 310.797 178.237C309.792 177.831 308.907 177.177 308.223 176.336C307.539 175.495 307.079 174.495 306.885 173.429C306.724 172.36 306.965 171.27 307.563 170.369C308.16 169.468 309.071 168.821 310.118 168.553C310.65 168.451 311.201 168.492 311.712 168.674C312.223 168.855 312.676 169.17 313.025 169.585C313.664 170.39 314.022 171.383 314.043 172.411C314.09 173.404 313.874 174.392 313.418 175.276C312.935 176.109 312.277 176.827 311.49 177.382C309.969 178.376 308.28 179.085 306.505 179.473C303.178 180.356 299.714 180.981 296.563 179.826C295.077 179.289 293.769 178.349 292.787 177.11C291.837 175.924 291.354 174.431 291.429 172.913C291.573 171.507 292.219 170.2 293.249 169.232C293.716 168.764 294.292 168.42 294.925 168.23C295.558 168.041 296.228 168.012 296.876 168.146H297.011V168.282C297.054 170.947 296.083 173.53 294.295 175.507C293.024 176.995 291.378 178.116 289.528 178.753C288.385 179.148 287.174 179.305 285.969 179.215C285.154 179.093 284.747 178.984 284.747 178.984C286.329 179.243 287.951 179.093 289.46 178.55C291.252 177.895 292.84 176.78 294.064 175.317C295.743 173.375 296.634 170.875 296.563 168.309L296.713 168.485C296.129 168.378 295.529 168.415 294.963 168.592C294.397 168.77 293.884 169.083 293.466 169.504C292.528 170.407 291.945 171.616 291.823 172.913C291.619 175.629 293.806 178.346 296.658 179.324C299.51 180.302 302.974 179.799 306.274 178.903C307.977 178.523 309.597 177.837 311.055 176.879C311.763 176.376 312.355 175.727 312.794 174.978C313.198 174.19 313.386 173.308 313.337 172.424C313.318 171.541 313.013 170.688 312.468 169.993C312.193 169.66 311.833 169.408 311.427 169.262C311.021 169.116 310.583 169.083 310.159 169.164C309.273 169.404 308.506 169.962 308.005 170.731C307.504 171.5 307.304 172.427 307.442 173.334C307.624 174.283 308.041 175.171 308.656 175.916C309.271 176.661 310.063 177.24 310.96 177.599C312.893 178.285 314.971 178.458 316.99 178.101C321.257 177.559 325.332 176.004 328.875 173.565C329.743 172.991 330.398 172.146 330.735 171.161C330.864 170.692 330.82 170.192 330.61 169.753C330.401 169.314 330.04 168.965 329.595 168.771C329.145 168.556 328.645 168.468 328.149 168.519C327.653 168.569 327.18 168.755 326.783 169.056C326.401 169.416 326.095 169.849 325.882 170.33C325.67 170.81 325.556 171.328 325.547 171.854C325.528 172.72 325.688 173.581 326.018 174.383C326.347 175.185 326.839 175.91 327.462 176.512C328.703 177.738 330.267 178.586 331.971 178.957C335.394 179.745 338.912 178.794 342.199 177.857C343.838 177.486 345.409 176.863 346.857 176.01C347.529 175.579 348.092 174.997 348.501 174.312C348.868 173.623 349.055 172.852 349.044 172.071C349.058 171.313 348.797 170.575 348.311 169.993C348.077 169.729 347.779 169.532 347.445 169.42C347.111 169.308 346.754 169.285 346.409 169.355C345.708 169.594 345.093 170.033 344.637 170.616C344.181 171.2 343.905 171.904 343.842 172.641C343.83 173.379 344 174.107 344.337 174.763C344.673 175.419 345.165 175.983 345.771 176.404C346.965 177.318 348.363 177.929 349.845 178.183C352.686 178.707 355.615 178.449 358.32 177.436C360.859 176.513 363.131 174.978 364.935 172.967C365.811 172.085 366.422 170.974 366.701 169.762C366.86 169.221 366.808 168.641 366.556 168.136C366.304 167.632 365.87 167.243 365.342 167.046C364.822 166.89 364.268 166.893 363.75 167.055C363.232 167.217 362.774 167.531 362.436 167.956C362.13 168.383 361.916 168.869 361.806 169.383C361.696 169.897 361.693 170.428 361.797 170.944C362.018 171.913 362.459 172.819 363.085 173.592C363.712 174.364 364.507 174.982 365.41 175.399C368.303 176.907 371.464 177.831 374.714 178.115C376.771 178.281 378.84 178.208 380.88 177.898L382.469 177.599C382.613 177.567 382.758 177.545 382.904 177.531Z" fill="#FFB600"/>
<path d="M515.777 175.915C515.237 176.255 514.664 176.537 514.065 176.757C512.364 177.452 510.551 177.834 508.714 177.884C505.792 177.989 502.895 177.314 500.32 175.928C498.668 175.11 497.262 173.868 496.246 172.329C495.684 171.454 495.427 170.418 495.512 169.382C495.572 168.833 495.742 168.302 496.013 167.821C496.284 167.34 496.649 166.919 497.088 166.584C497.56 166.216 498.146 166.024 498.745 166.041C499.359 166.061 499.944 166.308 500.388 166.733C500.811 167.174 501.13 167.705 501.32 168.285C501.511 168.866 501.568 169.482 501.488 170.088C501.27 171.314 500.671 172.44 499.777 173.307C498.897 174.193 497.901 174.956 496.816 175.575C494.548 176.911 492.009 177.723 489.387 177.952C486.581 178.275 483.742 177.75 481.237 176.444C479.927 175.74 478.836 174.687 478.086 173.402C477.712 172.729 477.468 171.992 477.367 171.229C477.291 170.043 477.598 168.864 478.24 167.865C478.883 166.865 479.828 166.098 480.939 165.674C481.342 165.548 481.766 165.505 482.186 165.547C482.606 165.589 483.013 165.715 483.383 165.918C484.113 166.328 484.686 166.968 485.013 167.738C485.334 168.498 485.485 169.318 485.454 170.142C485.424 170.965 485.213 171.772 484.837 172.506C484.067 173.939 482.957 175.161 481.604 176.064C478.909 177.929 475.755 179.019 472.483 179.215C469.212 179.412 465.95 178.707 463.051 177.178C461.622 176.452 460.326 175.487 459.221 174.326C458.056 173.167 457.376 171.608 457.32 169.966C457.336 169.138 457.591 168.333 458.053 167.646C458.516 166.96 459.167 166.421 459.927 166.095C460.327 165.937 460.759 165.881 461.185 165.931C461.612 165.981 462.02 166.135 462.372 166.38C463.043 166.862 463.523 167.564 463.73 168.363C463.921 169.118 463.938 169.906 463.781 170.668C463.623 171.43 463.295 172.147 462.82 172.764C461.941 173.929 460.882 174.947 459.683 175.779C457.512 177.385 455.026 178.513 452.387 179.089C449.749 179.665 447.019 179.675 444.376 179.12C441.919 178.676 439.708 177.353 438.155 175.399C437.435 174.446 437.032 173.292 437.001 172.098C436.968 170.957 437.25 169.83 437.816 168.838C438.078 168.353 438.435 167.926 438.867 167.582C439.299 167.239 439.796 166.987 440.329 166.842C440.841 166.727 441.372 166.727 441.884 166.842C442.396 166.957 442.876 167.184 443.289 167.507C444.028 168.093 444.602 168.86 444.954 169.734C445.306 170.608 445.426 171.558 445.3 172.492C445.021 174.097 444.166 175.546 442.896 176.567C441.865 177.425 440.653 178.038 439.351 178.359C437.569 178.76 435.735 178.875 433.918 178.699L432.56 178.577C432.402 178.596 432.242 178.596 432.084 178.577C432.242 178.559 432.402 178.559 432.56 178.577H433.986C435.81 178.694 437.641 178.538 439.419 178.115C440.669 177.775 441.828 177.163 442.814 176.322C443.982 175.294 444.731 173.873 444.919 172.329C445.022 171.472 444.903 170.602 444.575 169.804C444.247 169.005 443.72 168.303 443.045 167.765C442.679 167.49 442.257 167.297 441.809 167.201C441.361 167.105 440.898 167.107 440.451 167.209C439.986 167.349 439.554 167.579 439.178 167.887C438.803 168.194 438.492 168.573 438.264 169.001C437.729 169.921 437.476 170.978 437.537 172.04C437.597 173.103 437.968 174.124 438.604 174.978C440.092 176.808 442.189 178.042 444.512 178.454C447.072 178.994 449.717 178.984 452.274 178.427C454.83 177.87 457.24 176.778 459.343 175.222C460.476 174.419 461.475 173.443 462.304 172.329C462.72 171.794 463.009 171.17 463.148 170.507C463.287 169.843 463.272 169.156 463.106 168.499C462.947 167.855 462.567 167.288 462.033 166.896C461.771 166.712 461.468 166.595 461.15 166.558C460.832 166.52 460.51 166.561 460.213 166.679C459.581 166.958 459.042 167.412 458.659 167.987C458.277 168.562 458.066 169.234 458.053 169.925C458.122 171.386 458.737 172.768 459.778 173.796C460.836 174.899 462.071 175.817 463.431 176.512C466.222 177.96 469.351 178.631 472.491 178.454C475.63 178.272 478.658 177.224 481.237 175.426C482.511 174.617 483.565 173.507 484.307 172.193C484.636 171.552 484.822 170.848 484.853 170.128C484.883 169.408 484.757 168.69 484.484 168.024C484.252 167.384 483.788 166.854 483.184 166.54C482.581 166.225 481.881 166.149 481.224 166.326C480.265 166.704 479.45 167.375 478.894 168.243C478.338 169.111 478.07 170.132 478.127 171.161C478.216 171.834 478.433 172.484 478.766 173.076C479.451 174.26 480.453 175.229 481.659 175.874C484.032 177.119 486.722 177.63 489.387 177.341C491.908 177.113 494.348 176.329 496.531 175.045C497.574 174.462 498.533 173.74 499.383 172.899C500.197 172.118 500.748 171.102 500.959 169.993C501.032 169.47 500.987 168.938 500.827 168.435C500.667 167.932 500.396 167.471 500.035 167.086C499.683 166.748 499.221 166.549 498.734 166.527C498.246 166.504 497.768 166.66 497.386 166.964C497.011 167.262 496.697 167.632 496.464 168.051C496.231 168.471 496.083 168.932 496.028 169.409C495.952 170.361 496.18 171.312 496.68 172.125C497.658 173.598 499.001 174.791 500.578 175.589C503.068 176.974 505.879 177.676 508.727 177.626C510.535 177.593 512.324 177.263 514.024 176.648C515.192 176.213 515.749 175.874 515.777 175.915Z" fill="#FFB600"/>
<path d="M389.505 235.907C389.343 236.011 389.17 236.097 388.989 236.165L387.427 236.871C386.069 237.482 384.018 238.379 381.342 239.384C378.088 240.64 374.71 241.551 371.264 242.1C369.106 242.416 366.925 242.548 364.745 242.494C362.284 242.541 359.832 242.174 357.492 241.407C356.18 240.961 354.994 240.207 354.035 239.207C353.075 238.207 352.37 236.992 351.978 235.662C351.777 234.94 351.722 234.185 351.815 233.441C351.909 232.698 352.148 231.98 352.521 231.33C352.897 230.638 353.433 230.047 354.086 229.607C354.739 229.167 355.488 228.892 356.27 228.803C357.095 228.789 357.906 229.02 358.6 229.468C359.294 229.915 359.84 230.558 360.168 231.316C360.91 232.821 361.031 234.557 360.507 236.151C359.939 237.737 358.959 239.143 357.669 240.226C356.377 241.321 354.943 242.235 353.404 242.942C350.231 244.592 346.564 245.022 343.095 244.151C341.301 243.597 339.689 242.572 338.427 241.181C337.165 239.79 336.301 238.086 335.924 236.246C335.761 235.298 335.761 234.329 335.924 233.38C336.055 232.384 336.459 231.444 337.092 230.664C337.393 230.241 337.782 229.887 338.232 229.627C338.682 229.367 339.182 229.206 339.7 229.156C340.25 229.146 340.789 229.31 341.241 229.625C341.692 229.939 342.032 230.389 342.212 230.909C342.472 231.886 342.517 232.908 342.343 233.905C342.17 234.902 341.782 235.849 341.207 236.681C340.204 238.388 338.918 239.913 337.404 241.19C334.427 243.739 330.62 245.112 326.701 245.052C322.782 244.992 319.02 243.503 316.121 240.864C314.728 239.569 313.777 237.868 313.405 236.002C313.219 235.061 313.28 234.087 313.582 233.177C313.912 232.284 314.458 231.486 315.171 230.854C315.876 230.208 316.763 229.796 317.711 229.673C318.196 229.603 318.692 229.641 319.161 229.784C319.631 229.927 320.063 230.172 320.427 230.501C321.063 231.166 321.51 231.988 321.723 232.884C321.935 233.779 321.905 234.715 321.636 235.594C321.105 237.246 320.133 238.721 318.824 239.859C317.618 240.982 316.293 241.971 314.872 242.806C312.155 244.412 309.136 245.439 306.003 245.822C303.075 246.208 300.098 245.943 297.283 245.047C295.944 244.599 294.72 243.862 293.698 242.888C292.708 241.945 292.03 240.723 291.755 239.384C291.461 238.107 291.585 236.769 292.109 235.567C292.359 234.988 292.752 234.481 293.251 234.094C293.749 233.707 294.337 233.452 294.961 233.353C295.546 233.264 296.144 233.299 296.714 233.456C297.285 233.613 297.817 233.888 298.275 234.263C298.706 234.624 299.032 235.095 299.216 235.626C299.4 236.157 299.436 236.728 299.321 237.279C299.094 238.282 298.545 239.183 297.759 239.846C297.065 240.453 296.293 240.964 295.463 241.367C294.031 242.076 292.535 242.649 290.995 243.078C288.874 243.686 286.682 244.01 284.475 244.042C283.709 244.07 282.942 244.038 282.18 243.947H282.764C283.158 243.947 283.728 243.947 284.475 243.947C286.658 243.849 288.82 243.484 290.913 242.861C292.428 242.406 293.901 241.82 295.314 241.109C296.111 240.712 296.852 240.21 297.514 239.615C298.206 238.991 298.682 238.163 298.872 237.251C298.97 236.768 298.934 236.268 298.769 235.804C298.604 235.34 298.316 234.929 297.935 234.616C297.519 234.289 297.041 234.051 296.529 233.915C296.018 233.78 295.484 233.75 294.961 233.829C294.413 233.922 293.897 234.153 293.462 234.5C293.028 234.846 292.688 235.298 292.475 235.812C292.002 236.917 291.897 238.146 292.176 239.316C292.508 240.573 293.164 241.72 294.08 242.643C294.995 243.566 296.138 244.231 297.392 244.572C300.125 245.433 303.015 245.674 305.853 245.278C310.517 244.694 314.877 242.65 318.308 239.438C319.536 238.379 320.447 237.002 320.943 235.459C321.177 234.695 321.205 233.883 321.024 233.106C320.842 232.328 320.458 231.612 319.911 231.031C319.273 230.545 318.477 230.314 317.678 230.385C316.879 230.455 316.135 230.821 315.592 231.411C314.983 231.967 314.517 232.661 314.234 233.435C313.973 234.237 313.921 235.093 314.084 235.92C314.451 237.646 315.349 239.213 316.651 240.402C319.43 242.923 323.033 244.343 326.784 244.395C330.535 244.448 334.176 243.129 337.024 240.688C338.485 239.467 339.721 238 340.678 236.355C341.174 235.577 341.528 234.717 341.724 233.815C341.943 232.951 341.914 232.043 341.642 231.194C341.517 230.804 341.273 230.463 340.944 230.22C340.615 229.976 340.218 229.842 339.808 229.836C339.392 229.886 338.99 230.023 338.63 230.239C338.27 230.454 337.959 230.742 337.717 231.085C337.207 231.801 336.853 232.615 336.678 233.476C336.503 234.337 336.509 235.225 336.698 236.083C337.053 237.797 337.859 239.385 339.034 240.681C340.209 241.978 341.71 242.937 343.381 243.458C346.688 244.289 350.185 243.884 353.214 242.317C356.175 240.891 359.013 238.827 360.005 235.88C360.481 234.439 360.374 232.869 359.706 231.506C359.436 230.851 358.976 230.292 358.385 229.9C357.795 229.508 357.101 229.301 356.392 229.306C355.704 229.386 355.045 229.63 354.471 230.018C353.897 230.406 353.424 230.925 353.092 231.533C352.751 232.119 352.53 232.766 352.444 233.438C352.358 234.11 352.407 234.792 352.589 235.445C352.952 236.697 353.61 237.844 354.508 238.79C355.406 239.735 356.518 240.451 357.75 240.878C360.034 241.646 362.431 242.022 364.84 241.991C366.996 242.062 369.155 241.948 371.292 241.652C374.715 241.152 378.079 240.301 381.329 239.112C384.045 238.148 386.055 237.292 387.454 236.735L389.043 236.083L389.505 235.907Z" fill="#FFB600"/>
<path d="M518.262 534.737C518.262 534.737 487.024 498.772 475.207 462.752C463.391 426.733 469.027 430.916 469.027 430.916C469.027 430.916 484.946 465.849 497.034 482.732C509.121 499.614 530.649 524.374 530.649 524.374L518.262 534.737Z" fill="#165188"/>
<path d="M524.537 436.554C524.327 436.187 523.996 435.905 523.6 435.756C523.205 435.607 522.77 435.6 522.37 435.736C521.97 435.873 521.63 436.144 521.408 436.504C521.187 436.864 521.097 437.29 521.155 437.708C523.057 450.353 527.172 480.003 527.022 499.235C526.805 524.212 527.022 533.869 527.022 533.869H539.993C539.993 533.869 537.684 482.257 534.737 466.475C532.727 455.446 528.353 443.182 524.537 436.554Z" fill="#165188"/>
<path d="M531.64 529.672C537.087 517.321 540.693 504.238 542.343 490.841C543.416 481.632 541.501 469.205 538.662 452.621C537.555 446.558 537.005 440.407 537.019 434.244C537.021 433.555 537.253 432.886 537.678 432.343C538.103 431.8 538.697 431.415 539.366 431.248C540.035 431.081 540.74 431.143 541.371 431.422C542.001 431.702 542.52 432.183 542.845 432.791C544.407 435.589 548.957 445.151 550.112 451.154C553.263 467.534 556.821 475.724 554.105 491.248C551.388 506.772 541.351 530.717 541.351 530.717L531.64 529.672Z" fill="#165188"/>
<path d="M543.348 530.717C543.348 530.717 577.67 456.981 580.02 446.033C582.369 435.086 590.478 409.892 591.428 411.318C592.379 412.744 593.819 426.054 587.625 441.28C581.432 456.505 555.029 532.972 555.029 532.972H543.307" fill="#165188"/>
<path d="M527.878 527.416C527.538 527.227 527.216 527.009 526.914 526.764C526.303 526.302 525.379 525.65 524.197 524.727C520.989 522.166 517.911 519.447 514.975 516.577C505.318 507.057 496.948 496.313 490.08 484.619C483.241 472.927 477.551 460.6 473.088 447.812C471.364 442.909 470.114 438.902 469.286 436.118C468.878 434.76 468.579 433.646 468.375 432.899C468.259 432.531 468.172 432.154 468.117 431.771C468.286 432.12 468.423 432.484 468.525 432.858L469.557 436.036C470.467 438.753 471.798 442.827 473.632 447.635C478.221 460.354 483.958 472.628 490.772 484.307C497.614 495.945 505.887 506.682 515.396 516.265C519.077 519.919 522.187 522.689 524.442 524.55C525.529 525.501 526.425 526.18 527.009 526.682C527.315 526.906 527.606 527.151 527.878 527.416Z" fill="#263238"/>
<path d="M531.627 492.05C531.474 491.334 531.374 490.607 531.328 489.877L530.69 483.969C530.147 478.984 529.332 472.098 528.082 464.546C526.833 456.995 525.515 450.177 524.469 445.273L523.22 439.46C523.022 438.759 522.895 438.041 522.839 437.314C523.108 437.99 523.326 438.685 523.491 439.392C523.885 440.751 524.388 442.72 524.972 445.165C526.153 450.054 527.593 456.845 528.816 464.424C530.038 472.003 530.799 478.916 531.206 483.914C531.41 486.427 531.546 488.451 531.613 489.863C531.683 490.59 531.687 491.322 531.627 492.05Z" fill="#263238"/>
<path d="M539.668 432.207C539.836 432.504 539.973 432.818 540.075 433.144C540.333 433.837 540.673 434.747 541.107 435.861C541.542 436.974 542.085 438.509 542.574 440.248C543.063 441.986 543.742 443.928 544.245 446.156L545.1 449.619C545.386 450.828 545.589 452.105 545.847 453.409C546.404 456.03 546.757 458.841 547.206 461.857C548.774 474.842 548.316 487.992 545.847 500.837C545.209 503.771 544.666 506.582 543.919 509.149C543.566 510.439 543.267 511.702 542.9 512.884C542.533 514.066 542.153 515.207 541.8 516.28C541.148 518.466 540.347 520.354 539.708 522.052C539.07 523.75 538.472 525.176 537.929 526.33L536.707 529.047C536.583 529.362 536.423 529.663 536.231 529.943C536.322 529.614 536.435 529.292 536.571 528.979C536.856 528.3 537.209 527.39 537.671 526.262C538.133 525.135 538.744 523.655 539.328 521.957C539.912 520.259 540.686 518.344 541.311 516.171C541.637 515.084 541.99 513.943 542.357 512.775C542.723 511.607 542.995 510.331 543.335 509.04C544.055 506.473 544.571 503.675 545.182 500.755C547.57 487.966 548.028 474.89 546.54 461.965C546.146 459.004 545.82 456.179 545.29 453.572C545.046 452.213 544.856 450.991 544.584 449.782C544.313 448.573 544.041 447.419 543.783 446.319C543.321 444.091 542.696 442.135 542.221 440.411C541.746 438.686 541.284 437.192 540.863 435.983L539.966 433.266C539.826 432.926 539.725 432.571 539.668 432.207Z" fill="#263238"/>
<path d="M591.075 412.797C591.081 412.905 591.081 413.014 591.075 413.123C591.075 413.381 590.98 413.693 590.912 414.087C590.763 414.916 590.573 416.165 590.233 417.754C589.581 420.933 588.468 425.496 586.756 431.024C585.045 436.552 582.682 443.071 579.965 450.202C577.249 457.332 573.976 465.142 570.933 473.4C567.891 481.658 565.5 489.698 563.219 497.06C560.937 504.421 558.886 510.954 556.862 516.387C555.283 520.689 553.469 524.901 551.429 529.004C550.723 530.458 550.071 531.544 549.677 532.305L549.202 533.147C549.151 533.245 549.087 533.337 549.012 533.419L549.134 533.106C549.256 532.875 549.392 532.577 549.555 532.223C549.922 531.463 550.506 530.349 551.171 528.869C552.53 525.948 554.404 521.657 556.36 516.21C558.315 510.764 560.434 504.19 562.553 496.856C564.672 489.522 567.13 481.44 570.227 473.142C573.324 464.843 576.515 457.074 579.327 449.957C582.138 442.84 584.529 436.375 586.294 430.875C588.06 425.374 589.242 420.837 589.989 417.686C590.369 416.124 590.6 414.889 590.804 414.06C590.885 413.68 590.967 413.367 591.021 413.109C591.022 413.003 591.041 412.897 591.075 412.797Z" fill="#263238"/>
<path d="M485.258 396.5C484.783 396.053 484.174 395.775 483.525 395.71C482.876 395.645 482.223 395.796 481.669 396.14C481.115 396.484 480.689 397.001 480.459 397.611C480.229 398.221 480.207 398.89 480.396 399.515C481.565 403.311 483.004 407.019 484.701 410.611C489.414 420.635 503.281 456.6 509.76 476.362C516.239 496.123 525.393 532.971 525.393 532.971L539.246 530.717C539.246 530.717 526.574 470.168 514.188 448.342C504.232 430.821 494.29 405.477 485.258 396.5Z" fill="#165188"/>
<path d="M513.549 488.707C513.854 489.234 514.096 489.794 514.269 490.378C514.676 491.464 515.233 493.094 515.872 495.023C517.148 498.975 518.697 504.53 520.272 510.628C521.848 516.727 523.152 522.336 524.062 526.383C524.483 528.299 524.822 529.901 525.107 531.178C525.269 531.763 525.365 532.364 525.393 532.971C525.141 532.418 524.95 531.84 524.822 531.246C524.496 529.983 524.062 528.394 523.559 526.506C522.5 522.336 521.101 516.862 519.566 510.805C518.031 504.747 516.51 499.152 515.369 495.172L514.011 490.459C513.802 489.891 513.647 489.304 513.549 488.707Z" fill="#263238"/>
<path d="M532.347 531.845C532.303 531.727 532.275 531.604 532.265 531.478C532.265 531.193 532.184 530.826 532.116 530.378C531.966 529.427 531.844 528.001 531.545 526.195C531.043 522.555 530.187 517.312 528.639 510.915C526.871 503.427 524.708 496.037 522.16 488.776C519.322 480.627 515.75 471.704 511.716 462.536C503.566 444.2 495.417 427.943 490.08 415.909C487.363 409.919 485.285 405.043 483.9 401.607C483.194 399.909 482.691 398.578 482.338 397.668C482.188 397.247 482.066 396.908 481.958 396.636C481.904 396.52 481.868 396.396 481.849 396.27C481.92 396.376 481.98 396.49 482.025 396.609L482.474 397.614C482.881 398.551 483.452 399.855 484.158 401.499C485.625 404.881 487.784 409.729 490.541 415.705C495.974 427.658 504.218 443.874 512.381 462.237C516.456 471.432 519.987 480.315 522.799 488.559C525.315 495.849 527.428 503.271 529.128 510.793C530.29 515.865 531.197 520.991 531.844 526.154C532.089 527.974 532.184 529.4 532.279 530.365C532.279 530.817 532.306 531.184 532.36 531.465C532.374 531.591 532.369 531.719 532.347 531.845Z" fill="#263238"/>
<path d="M539.246 530.716C539.02 529.957 538.861 529.18 538.771 528.394C538.499 526.764 538.133 524.618 537.698 522.024C536.747 516.591 535.28 509.27 533.189 501.216C531.097 493.162 528.775 486.004 526.982 480.843L524.809 474.759C524.507 474.027 524.262 473.273 524.075 472.504C524.474 473.192 524.81 473.915 525.08 474.663C525.678 476.022 526.506 478.113 527.471 480.667C529.974 487.338 532.118 494.139 533.895 501.04C535.686 507.93 537.127 514.907 538.214 521.942C538.608 524.659 538.907 526.832 539.056 528.353C539.172 529.136 539.236 529.925 539.246 530.716Z" fill="#263238"/>
<path d="M567.673 528.734H513.603V594.607H567.673V528.734Z" fill="#FFB600"/>
<g opacity="0.3">
<path opacity="0.3" d="M567.673 528.734H513.603V594.607H567.673V528.734Z" fill="black"/>
</g>
<path d="M550.424 528.734H502.453V594.607H550.424V528.734Z" fill="#FFB600"/>
<path d="M111.047 179.473L109.512 303.232C109.254 324.271 113.166 355.238 146.455 354.138C175.276 351 182.923 323.728 183.126 304.088C183.235 294.771 183.344 287.002 183.412 286.051C183.412 286.051 214.949 283.471 217.611 252.313C218.901 237.265 218.969 206.04 218.82 177.789C218.701 163.157 213.078 149.106 203.069 138.433C193.059 127.759 179.398 121.245 164.804 120.188L161.789 119.957C129.22 119.495 110.626 146.89 111.047 179.473Z" fill="#FFBE9D"/>
<path d="M183.425 286.052C183.425 286.052 163.691 285.766 143.711 271.111C143.711 271.111 151.942 294.608 183.262 294.065L183.425 286.052Z" fill="#EB996E"/>
<path d="M165.565 190.557C164.954 191.195 161.354 188.289 156.125 188.153C150.896 188.017 147.012 190.571 146.469 189.905C146.197 189.606 146.835 188.452 148.547 187.257C150.834 185.722 153.549 184.952 156.302 185.056C159.025 185.125 161.652 186.079 163.786 187.773C165.361 189.09 165.877 190.285 165.565 190.557Z" fill="#263238"/>
<path d="M165.416 201.354C165.342 202.452 164.845 203.478 164.029 204.216C163.213 204.953 162.142 205.344 161.042 205.307C159.961 205.307 158.925 204.877 158.161 204.113C157.397 203.349 156.968 202.313 156.968 201.232C157.038 200.136 157.532 199.11 158.346 198.372C159.16 197.634 160.229 197.242 161.327 197.28C161.864 197.278 162.395 197.382 162.891 197.586C163.387 197.79 163.838 198.09 164.217 198.468C164.597 198.847 164.898 199.297 165.104 199.792C165.31 200.287 165.416 200.818 165.416 201.354Z" fill="#263238"/>
<path d="M178.713 226.861C178.713 226.59 181.728 226.291 186.59 226.033C187.826 226.033 189.008 225.829 189.306 225.014C189.505 223.761 189.316 222.476 188.763 221.334L185.707 211.717C181.633 198.135 178.821 186.917 179.364 186.754C179.908 186.591 183.656 197.524 187.704 211.201C188.682 214.57 189.605 217.761 190.42 220.831C190.787 222.257 191.466 223.887 190.705 225.68C190.498 226.1 190.196 226.467 189.824 226.752C189.452 227.037 189.019 227.232 188.559 227.323C187.871 227.457 187.168 227.502 186.468 227.459C181.66 227.337 178.713 227.147 178.713 226.861Z" fill="#263238"/>
<path d="M163.351 170.97C162.849 172.138 158.665 171.256 153.667 171.514C148.669 171.772 144.54 172.872 143.97 171.772C143.712 171.228 144.486 170.169 146.184 169.137C148.423 167.859 150.941 167.151 153.518 167.072C156.078 166.937 158.631 167.441 160.947 168.539C162.713 169.381 163.569 170.386 163.351 170.97Z" fill="#263238"/>
<path d="M212.912 180.601C212.369 181.551 208.294 180.506 203.405 180.356C198.515 180.207 194.373 180.831 193.897 179.84C193.68 179.378 194.495 178.482 196.206 177.776C198.527 176.854 201.019 176.442 203.513 176.567C206.03 176.645 208.503 177.256 210.766 178.36C212.369 179.242 213.157 180.152 212.912 180.601Z" fill="#263238"/>
<path d="M111.916 202.753C111.4 202.482 90.9457 194.849 90.0765 216.213C89.2072 237.578 110.803 234.06 110.898 233.449C110.993 232.837 111.916 202.753 111.916 202.753Z" fill="#FFBE9D"/>
<path d="M104.704 225.082C104.609 225.014 104.31 225.327 103.672 225.585C102.799 225.928 101.828 225.928 100.956 225.585C98.7281 224.661 96.976 221.008 97.0304 217.15C97.053 215.317 97.4846 213.512 98.2935 211.867C98.522 211.211 98.9075 210.62 99.4165 210.146C99.9254 209.673 100.542 209.331 101.214 209.151C101.644 209.052 102.094 209.109 102.487 209.31C102.88 209.511 103.189 209.844 103.36 210.251C103.631 210.862 103.468 211.283 103.59 211.324C103.713 211.365 104.066 210.984 103.916 210.101C103.822 209.573 103.549 209.094 103.142 208.743C102.571 208.275 101.841 208.046 101.105 208.105C100.211 208.239 99.3674 208.6 98.6539 209.154C97.9404 209.709 97.3813 210.437 97.0304 211.269C96.0537 213.083 95.5273 215.105 95.4956 217.164C95.4956 221.483 97.5057 225.598 100.548 226.671C101.117 226.858 101.719 226.917 102.313 226.844C102.907 226.771 103.478 226.569 103.984 226.25C104.636 225.598 104.772 225.123 104.704 225.082Z" fill="#EB996E"/>
<path d="M173.606 241.666C173.836 241.123 169.653 239.873 166.706 235.935C165.48 234.216 164.485 232.344 163.745 230.366C163.12 228.804 162.645 227.84 162.387 227.908C162.129 227.976 162.21 229.021 162.563 230.719C163.007 232.973 163.934 235.105 165.28 236.967C166.675 238.828 168.554 240.27 170.713 241.137C172.437 241.802 173.538 241.843 173.606 241.666Z" fill="#263238"/>
<path d="M213.156 192.526C212.532 193.15 208.932 190.257 203.649 190.122C198.366 189.986 194.535 192.539 193.979 191.874C193.707 191.575 194.359 190.42 196.057 189.225C198.344 187.691 201.059 186.921 203.812 187.025C206.539 187.094 209.17 188.048 211.309 189.741C212.939 191.059 213.455 192.24 213.156 192.526Z" fill="#263238"/>
<path d="M212.301 202.876C212.227 203.974 211.73 205 210.914 205.737C210.098 206.475 209.027 206.866 207.927 206.828C206.847 206.828 205.81 206.399 205.046 205.635C204.282 204.871 203.853 203.834 203.853 202.754C203.926 201.656 204.423 200.63 205.24 199.892C206.056 199.155 207.127 198.764 208.226 198.801C209.307 198.801 210.343 199.231 211.107 199.995C211.871 200.759 212.301 201.795 212.301 202.876Z" fill="#263238"/>
<path d="M240.565 136.419C238.442 132.971 235.15 130.401 231.29 129.179C227.43 127.958 223.26 128.165 219.54 129.763C220.495 124.818 219.807 119.697 217.581 115.179C215.355 110.661 211.713 106.995 207.209 104.74C202.706 102.484 197.589 101.763 192.638 102.686C187.687 103.609 183.173 106.126 179.785 109.852C179.516 108.531 178.965 107.283 178.171 106.193C177.376 105.103 176.357 104.197 175.181 103.537C172.825 102.223 170.211 101.44 167.521 101.241C161.145 100.534 154.696 101.511 148.817 104.076C142.937 106.64 137.833 110.702 134.014 115.855C127.802 115.118 121.503 115.851 115.626 117.996C109.749 120.141 104.459 123.636 100.181 128.201C90.1441 139.325 88.2426 165.09 99.2441 187.351L101.825 201.3C105.274 201.3 108.425 201.544 110.558 203.446C113.451 206.04 114.741 210.929 119.536 209.082C121.98 208.131 124.208 203.011 124.968 200.526C130.392 183.943 132.189 166.388 130.238 149.05C133.663 145.401 137.758 142.446 142.299 140.344L141.932 140.683C150.638 137.655 160.485 134.68 168.743 138.768C175.154 141.933 178.93 148.588 183.683 153.885C188.107 158.784 193.476 162.737 199.468 165.506C205.46 168.274 211.95 169.801 218.548 169.993C219.01 178.767 218.277 191.168 218.738 199.874L226.249 185.911C226.832 184.907 227.363 183.874 227.838 182.815L228.001 182.489C229.36 181.389 230.365 179.378 232.646 176.771C234.826 174.208 236.261 171.097 236.795 167.775C237.329 164.454 236.942 161.049 235.675 157.932C238.94 155.533 241.231 152.038 242.129 148.087C243.027 144.136 242.472 139.993 240.565 136.419Z" fill="#263238"/>
<path d="M227.784 136.744C227.784 136.744 227.865 136.894 227.947 137.206C228.057 137.651 228.121 138.106 228.137 138.564C228.206 140.314 227.778 142.047 226.901 143.562C226.28 144.608 225.469 145.53 224.511 146.279C223.372 147.151 222.031 147.72 220.613 147.936C218.964 148.195 217.277 148.023 215.715 147.435C214.153 146.846 212.771 145.863 211.703 144.581L212.233 144.133C212.747 144.696 213.146 145.356 213.404 146.074C213.663 146.792 213.777 147.554 213.74 148.316C213.724 149.335 213.504 150.341 213.094 151.274C212.683 152.207 212.09 153.048 211.35 153.749C209.944 154.998 208.171 155.756 206.297 155.908C203.182 156.135 200.083 155.282 197.523 153.491C195.818 152.333 194.242 150.994 192.824 149.498C192.28 148.979 191.78 148.415 191.33 147.813C191.927 148.269 192.49 148.768 193.014 149.307C194.491 150.703 196.091 151.962 197.795 153.07C200.279 154.73 203.252 155.501 206.229 155.256C207.956 155.099 209.589 154.395 210.888 153.246C212.217 151.961 212.987 150.205 213.034 148.357C213.084 146.995 212.596 145.668 211.676 144.662L212.205 144.201C213.195 145.392 214.474 146.31 215.92 146.867C217.366 147.423 218.93 147.599 220.463 147.379C221.701 147.192 222.881 146.729 223.916 146.023C224.951 145.318 225.813 144.388 226.439 143.304C227.306 141.863 227.774 140.218 227.797 138.537C227.906 137.396 227.73 136.758 227.784 136.744Z" fill="#165188"/>
<path d="M201.055 113.33C201.055 113.33 201.218 113.33 201.517 113.534C201.929 113.773 202.324 114.041 202.698 114.335C204.117 115.429 205.23 116.87 205.931 118.518C206.449 119.764 206.653 121.118 206.525 122.46C206.397 123.803 205.941 125.094 205.197 126.219C204.298 127.595 202.901 128.568 201.299 128.936C200.446 129.121 199.565 129.13 198.708 128.965C197.851 128.799 197.037 128.461 196.315 127.971C195.868 127.634 195.471 127.236 195.133 126.79L195.744 126.437C196.052 127.205 196.197 128.03 196.169 128.858C196.141 129.686 195.941 130.499 195.581 131.245C194.955 132.636 193.859 133.761 192.484 134.423C191.344 134.953 190.102 135.227 188.845 135.227C187.587 135.227 186.345 134.953 185.205 134.423C183.702 133.729 182.364 132.725 181.279 131.476C180.856 131.044 180.504 130.549 180.234 130.009C180.234 130.009 180.668 130.484 181.469 131.285C182.591 132.435 183.924 133.357 185.395 134.002C186.471 134.463 187.633 134.691 188.803 134.67C189.974 134.649 191.127 134.38 192.186 133.88C193.394 133.252 194.352 132.232 194.902 130.987C195.213 130.327 195.385 129.611 195.409 128.882C195.432 128.153 195.306 127.427 195.038 126.749L193.897 124.128L195.649 126.41C195.936 126.794 196.28 127.133 196.668 127.415C197.309 127.852 198.031 128.154 198.792 128.303C199.554 128.453 200.337 128.446 201.095 128.284C202.52 127.975 203.77 127.128 204.586 125.921C205.287 124.883 205.727 123.691 205.866 122.447C206.006 121.203 205.841 119.943 205.387 118.776C204.755 117.177 203.749 115.752 202.454 114.62C201.612 113.724 201.014 113.384 201.055 113.33Z" fill="#165188"/>
<path d="M382.442 269.115L333.072 306.791C332.38 307.323 331.805 307.989 331.38 308.751C330.956 309.513 330.692 310.353 330.604 311.221C330.516 312.088 330.607 312.964 330.87 313.796C331.133 314.627 331.563 315.395 332.135 316.054C333.203 317.289 334.705 318.067 336.33 318.226C337.956 318.385 339.58 317.914 340.868 316.91L389.763 278.88L396.377 265.828L382.442 269.115Z" fill="#FFB600"/>
<path opacity="0.5" d="M390.048 267.309L393.539 271.383L389.763 278.88C389.309 278.928 388.85 278.872 388.421 278.716C387.992 278.56 387.604 278.308 387.287 277.979C386.97 277.65 386.732 277.253 386.592 276.819C386.451 276.384 386.412 275.923 386.476 275.471C386.03 275.533 385.575 275.483 385.153 275.325C384.731 275.167 384.354 274.907 384.058 274.567C383.761 274.228 383.554 273.82 383.455 273.38C383.355 272.94 383.367 272.483 383.488 272.049C383.488 272.049 380.921 271.818 382.375 269.115L390.048 267.309Z" fill="white"/>
<path d="M333.072 306.75L341.167 316.638L343.883 314.533L336.128 304.428L333.072 306.75Z" fill="#263238"/>
<path d="M329.472 401.131L327.693 400.805L364.011 337.323L358.253 319.015C358.253 319.015 351.598 292.951 357.139 286.296C357.139 286.296 369.268 272.007 373.207 272.211C377.145 272.415 380.283 273.189 381.07 276.15C381.07 276.15 387.766 275.362 389.532 277.508C390.713 278.993 391.767 280.574 392.683 282.235C392.683 282.235 399.963 281.637 401.932 287.939C401.932 287.939 408.818 291.484 409.416 296.591C410.014 301.698 408.058 325.52 405.871 331.619C403.684 337.717 395.63 350.511 393.281 369.404C390.931 388.296 382.592 400.561 375.189 428.16L355.102 436.105L329.472 401.131Z" fill="#FFBE9D"/>
<path d="M380.731 275.742C380.88 275.946 378.381 277.603 376.493 280.659C374.605 283.715 374.157 286.649 373.899 286.608C373.924 284.348 374.571 282.138 375.769 280.221C376.967 278.305 378.669 276.755 380.69 275.742H380.731Z" fill="#EB996E"/>
<path d="M392.289 282.234C392.425 282.452 390.035 283.891 388.147 286.635C386.259 289.379 385.661 292.068 385.43 292.068C385.199 292.068 385.43 289.093 387.481 286.2C388.593 284.376 390.286 282.979 392.289 282.234Z" fill="#EB996E"/>
<path d="M401.552 287.775C401.702 287.966 399.895 289.555 398.238 291.945C396.581 294.336 395.685 296.577 395.454 296.495C395.66 294.657 396.391 292.917 397.559 291.483C398.5 289.884 399.888 288.595 401.552 287.775Z" fill="#EB996E"/>
<path d="M367.502 289.84C366.185 289.411 364.812 289.178 363.428 289.147C362.069 289.359 360.75 289.776 359.516 290.383C359.448 290.383 359.706 289.867 360.372 289.378C361.256 288.765 362.291 288.403 363.365 288.332C364.438 288.26 365.512 288.481 366.47 288.971C367.176 289.365 367.502 289.759 367.502 289.84Z" fill="#EB996E"/>
<path d="M381.926 298.9C381.103 297.567 380.092 296.359 378.925 295.315C376.874 293.712 374.646 293.617 374.673 293.373C374.701 293.128 375.23 293.142 376.14 293.25C377.335 293.434 378.465 293.914 379.426 294.648C380.387 295.381 381.148 296.343 381.641 297.447C381.994 298.303 382.021 298.873 381.926 298.9Z" fill="#EB996E"/>
<path d="M396.31 301.97C396.133 302.147 394.544 300.354 391.841 299.648C390.186 299.329 388.494 299.247 386.816 299.403C386.816 299.308 387.291 298.982 388.255 298.751C389.514 298.486 390.817 298.523 392.059 298.858C393.301 299.193 394.445 299.817 395.4 300.68C396.106 301.359 396.378 301.916 396.31 301.97Z" fill="#EB996E"/>
<path d="M29.8674 371.225C29.8674 371.225 7.5793 497.646 8.67944 509.476C9.77958 521.306 15.6742 540.103 29.0524 543.322C37.5495 545.221 46.3611 545.221 54.8582 543.322L38.8179 388.039L29.8674 371.225Z" fill="#FFB600"/>
<path d="M95.0476 306.002C95.0476 306.002 68.3997 325.017 62.4508 330.518C37.813 353.811 32.6654 363.346 29.854 371.264C27.0425 379.182 46.9673 562.132 46.9673 562.132L51.0419 594.117L238.025 594.593V431.215L209.951 316.216L192.661 311.299L189.171 297.595C189.171 297.595 167.698 281.731 132.276 281.297C121.41 281.147 105.954 285.439 97.3429 292.162L95.0476 306.002Z" fill="#FFB600"/>
<path d="M188.98 316.692C188.98 316.692 208.199 315.836 209.897 316.217C215.818 317.575 232.076 332.515 250.643 350.878C268.299 368.399 303.096 404.866 303.096 404.866C303.096 404.866 309.344 398.564 316.475 406.985L343.924 367.054C343.924 367.054 385.159 372.106 391.569 403.223C391.569 403.223 378.938 427.344 368.589 444.58C368.589 444.58 330.301 508.13 300.054 496.613C272.428 486.073 237.78 457.985 232.905 451.982L192.159 422.957C192.159 422.957 164.288 369.825 176.607 343.258L188.98 316.692Z" fill="#FFB600"/>
<path d="M192.607 311.3C192.274 311.27 191.946 311.202 191.629 311.097L188.912 310.363C186.508 309.752 183.004 308.91 178.631 308.081C167.223 305.972 155.698 304.552 144.119 303.83C132.547 303.008 120.93 303.045 109.363 303.939C104.921 304.319 101.363 304.876 98.9182 305.297L96.1067 305.854C95.7846 305.947 95.4506 305.993 95.1152 305.99C95.4207 305.857 95.7394 305.756 96.066 305.691L98.8503 304.985C102.302 304.239 105.794 303.691 109.308 303.341C120.901 302.279 132.562 302.165 144.173 303.002C155.776 303.718 167.315 305.224 178.712 307.511C183.086 308.421 186.576 309.344 188.98 310.064L191.697 310.947C192.013 311.029 192.318 311.148 192.607 311.3Z" fill="#263238"/>
<path d="M119.78 301.793C119.549 301.793 118.938 298.697 118.422 294.799C117.906 290.901 117.621 287.736 117.852 287.695C118.564 289.969 119.02 292.315 119.21 294.69C119.753 298.642 120.011 301.766 119.78 301.793Z" fill="#263238"/>
<path d="M126.761 301.195C124.905 296.71 124.561 291.741 125.784 287.043C126.028 287.043 125.661 290.248 125.933 294.146C126.205 298.044 126.992 301.127 126.761 301.195Z" fill="#263238"/>
<g opacity="0.3">
<path opacity="0.3" d="M95.6584 305.855C124.914 311.03 154.577 305.855 185.544 309.563C155.664 303.369 124.507 300.436 95.6584 305.855Z" fill="black"/>
</g>
<g opacity="0.3">
<path opacity="0.3" d="M44.2507 543.566C27.7893 505.007 29.7451 461.436 32.0269 419.59L44.2507 543.566Z" fill="black"/>
</g>
<path d="M29.8673 398.781C29.9118 398.941 29.9391 399.105 29.9487 399.27C29.9487 399.637 30.0574 400.112 30.1253 400.696C30.2611 402.055 30.4649 403.861 30.7093 406.224C31.1847 411.073 31.8774 418 32.7195 426.597C34.3901 443.738 36.6718 467.438 39.4018 493.584C42.1318 519.729 44.8346 543.375 47.0349 560.461C48.1079 569.004 49.0314 575.918 49.7513 580.685C50.0637 583.035 50.3082 584.882 50.4711 586.186C50.5526 586.783 50.607 587.259 50.6477 587.625C50.6624 587.788 50.6624 587.952 50.6477 588.114C50.5926 587.961 50.5561 587.801 50.5391 587.639L50.281 586.213C50.0773 584.855 49.7785 583.075 49.4117 580.78C48.6647 576.013 47.6461 569.113 46.4916 560.584C44.1691 543.511 41.344 519.838 38.6141 493.706C35.8841 467.574 33.6974 443.846 32.1762 426.692C31.4428 418.149 30.818 411.209 30.4241 406.319C30.2476 403.956 30.0981 402.109 30.0031 400.791C30.0031 400.194 30.0031 399.718 29.908 399.338C29.8715 399.155 29.8579 398.968 29.8673 398.781Z" fill="#263238"/>
<path d="M156.451 378.096C156.056 378.157 155.656 378.179 155.256 378.164H151.793C148.805 378.164 144.459 378.164 139.107 378.313C128.391 378.558 113.6 379.345 97.3697 381.26C81.1393 383.175 66.5658 385.946 56.0941 388.282C50.8514 389.41 46.5867 390.387 43.7209 391.107L40.3525 391.895C39.9655 392.001 39.5702 392.073 39.1709 392.112C39.539 391.952 39.9208 391.824 40.3118 391.732L43.6394 390.795C46.5323 389.98 50.7428 388.921 55.9718 387.712C83.2444 381.443 111.112 378.124 139.094 377.811C144.526 377.811 148.805 377.811 151.806 377.919L155.256 378.055C155.655 378.037 156.055 378.05 156.451 378.096Z" fill="#263238"/>
<path d="M84.6572 419.034C84.4263 419.034 84.8609 401.526 85.6079 379.945C86.3549 358.363 87.1698 340.856 87.4007 340.869C87.6316 340.883 87.197 358.376 86.4364 379.972C85.6758 401.567 84.8745 419.047 84.6572 419.034Z" fill="#263238"/>
<path d="M180.206 416.873C179.952 416.521 179.721 416.154 179.514 415.773C179.034 414.967 178.409 413.894 177.639 412.554L170.74 400.697C167.249 394.857 164.35 388.683 162.088 382.266C160.834 378.433 159.969 374.483 159.507 370.477C159.113 366.167 159.113 361.83 159.507 357.52C160.081 349.167 162.17 340.989 165.674 333.384C167.283 330.092 169.335 327.035 171.772 324.298C173.915 321.939 176.374 319.887 179.079 318.2C182.974 315.695 187.432 314.202 192.05 313.854C193.73 313.713 195.422 313.809 197.075 314.139C195.41 314.05 193.742 314.05 192.077 314.139C187.546 314.595 183.194 316.143 179.391 318.648C176.754 320.339 174.36 322.382 172.274 324.719C169.909 327.426 167.921 330.442 166.366 333.683C162.937 341.216 160.889 349.303 160.322 357.56C159.942 361.812 159.942 366.089 160.322 370.341C160.772 374.293 161.609 378.192 162.821 381.981C165.041 388.365 167.865 394.523 171.256 400.371L177.925 412.35L179.677 415.651C179.89 416.041 180.067 416.45 180.206 416.873Z" fill="#263238"/>
<g opacity="0.3">
<path opacity="0.3" d="M42.1996 391.964C54.0159 391.352 65.7649 389.804 77.3362 387.333C75.9085 392.445 75.2449 397.741 75.3668 403.047C79.036 398.913 81.7078 393.993 83.1765 388.664C83.597 391.563 84.5994 394.348 86.1236 396.85C87.6477 399.352 89.662 401.52 92.0455 403.224C93.2097 397.969 93.476 392.555 92.8332 387.211C110.318 385.11 127.685 382.235 144.934 378.586C110.021 377.74 75.1756 382.075 41.5341 391.448" fill="black"/>
</g>
<path d="M266.995 479.106C266.709 478.982 266.44 478.822 266.194 478.631L263.953 477.137C262.024 475.779 259.254 473.918 255.804 471.514C249.013 466.733 239.628 460.01 229.427 452.404C219.227 444.798 210.114 437.735 203.622 432.561C200.362 429.98 197.727 427.861 195.921 426.381L193.856 424.67C193.603 424.482 193.371 424.268 193.164 424.031C193.441 424.184 193.705 424.362 193.951 424.561L196.097 426.164L203.934 432.167C210.549 437.247 219.703 444.228 229.903 451.834C240.103 459.44 249.339 466.217 256.13 471.134L264.116 476.947L266.275 478.536C266.53 478.706 266.771 478.897 266.995 479.106Z" fill="#263238"/>
<path d="M312.617 437.436C312.495 437.436 312.617 435.371 312.332 432.098C311.716 423.517 309.132 415.193 304.78 407.773C303.11 404.934 301.887 403.29 301.982 403.209C302.35 403.527 302.675 403.893 302.947 404.296C303.754 405.329 304.506 406.403 305.201 407.514C309.857 414.888 312.489 423.357 312.835 432.071C312.908 433.378 312.908 434.689 312.835 435.996C312.826 436.483 312.753 436.967 312.617 437.436Z" fill="#263238"/>
<path d="M321.038 434.353C321.077 432.954 321.19 431.557 321.378 430.17C321.631 426.821 321.567 423.456 321.188 420.119C320.802 416.782 320.097 413.489 319.082 410.286C318.308 407.814 317.724 406.334 317.806 406.279C318.04 406.58 318.228 406.914 318.363 407.271C318.811 408.2 319.21 409.152 319.558 410.123C321.892 416.55 322.683 423.436 321.867 430.224C321.704 431.515 321.527 432.56 321.364 433.267C321.307 433.642 321.197 434.008 321.038 434.353Z" fill="#263238"/>
<path d="M384.819 416.874C384.819 416.874 384.819 416.616 384.507 416.358C384.273 416.21 384.081 416.004 383.95 415.76C383.801 415.475 383.692 415.135 383.502 414.809C383.135 414.117 382.225 413.601 381.573 412.596C380.868 411.481 380.319 410.274 379.943 409.01C379.016 405.783 377.424 402.785 375.271 400.209C373.979 398.711 372.576 397.313 371.074 396.026C369.48 394.617 367.787 393.323 366.008 392.155C364.286 390.899 362.47 389.777 360.575 388.8L355.143 386.165C353.431 385.35 351.829 384.508 350.267 383.842L345.92 381.982C345.274 381.735 344.644 381.449 344.032 381.126C343.448 380.787 342.973 380.406 342.484 380.135L341.126 379.388C340.691 379.157 340.325 378.844 339.999 378.641C339.333 378.219 338.749 377.989 338.369 377.785C337.988 377.581 337.798 377.472 337.812 377.445C338.024 377.493 338.229 377.566 338.423 377.663C339.016 377.869 339.592 378.119 340.148 378.41C340.972 378.928 341.835 379.382 342.729 379.768C343.258 380.026 343.761 380.406 344.304 380.705C344.847 381.004 345.526 381.221 346.178 381.506L350.552 383.272C352.114 383.91 353.744 384.752 355.482 385.554L360.915 388.148C362.835 389.134 364.674 390.269 366.416 391.543C368.226 392.722 369.942 394.039 371.55 395.482C373.073 396.794 374.49 398.225 375.787 399.761C377.968 402.412 379.552 405.502 380.432 408.82C380.773 410.055 381.27 411.242 381.913 412.351C382.483 413.302 383.366 413.859 383.746 414.646C383.95 415.027 384.031 415.38 384.154 415.638C384.263 415.868 384.421 416.071 384.615 416.235C384.955 416.589 384.833 416.901 384.819 416.874Z" fill="#263238"/>
<path d="M210.576 591.443C210.386 591.443 210.223 557.081 210.223 514.691C210.223 472.302 210.386 437.939 210.576 437.939C210.766 437.939 210.929 472.302 210.929 514.691C210.929 557.081 210.78 591.443 210.576 591.443Z" fill="#263238"/>
</svg>
